<svg id="Layer_1" data-name="Layer 1" xmlns="http://www.w3.org/2000/svg" viewBox="0 0 2494.46 1290.21"><defs><style>.cls-1{fill:none;stroke:#A9A9A9;stroke-miterlimit:10;stroke-width:2px;}</style></defs><path class="cls-1" d="M458.7,549.52c.44,5.31,1.2,12.54,2.22,20.27,1.23,9.32,4.38,18.75,8.68,18.31,9-.92,7.31-23.83,7.31-23.83-2.37-15-6.15-25.68,4.92-36.94,11.76-12,27.37-18.47,39-30.53,7.22-7.48,10.86-13.57,12.46-24.55.15-1,1-14.92,1.68-14.77,2.16.46,3,9.16,3,9.16l17.21-18.79c17.14-18.71,32.57-15.61,32.7-15.58-.88-.18.61-5.77.67-6.09,2.36-11.7,7.11-13.16,16.73-17.51l14.07-6.36,4.26-1.92c6.35-2.87,12.68-5.82,19.07-8.6,0,3.69-14.61,17.82-13.34,19.63s4.11-2.41,9.87-6.35,29.39-11.39,26.31-11.39-12.33-3.28-14.6-4.16-3.9-16.42-3.9-19.92,9.66-4.82,9.66-8.1-16.45-2.2-21-.22c-5.65,2.48-22.7,16.1-24.66,14s16-19.47,16-19.47,6.94,1.75,9.8,0,0-6.26,3.26-7.65,44.39,0,48.3,0S710.64,335,710.64,335s17,2.78,17.62-6.95-3-19.21-7.26-19.79-9.16-5.73-11.85-8a39.56,39.56,0,0,1-6.47-7.46c-1.61-2.29,6.47-2.87,6.47-5.16s-3.23-8.61-3.23-8.61l-6.47-20.65s-13.46,9.75-17.24,12.05-7,5.73-12.38.57,0-22,0-22-6.47,3-8.62,0-4.31-10.17-5.93-10.17-4.85,1.72-11.67,1.72-3.41-4-9.87-4.59-9.16,2.3-9.16,2.3L623.5,249h-5.38s1.61,10.49,1.07,13.35-15.62,8-15.62,8,7,4,5.39,14.34-32.86,21.8-32.86,21.8-6.46,26.39-9.69,26.39-5.93,7.46-9.16,5.74-7.54-13.77-7.54-13.77,10.77-20.65,9.15-23.52-18.31,0-18.31,0-18.85-17.21-25.85-17.79a18.92,18.92,0,0,0-11.32,2.3l3.77-15.49h-7.54s10.38-15.6,22.09-23.53c14.18-9.59,30.16-11.94,30.16-13.19,0-2.3,6.47-7.46,12.39-9.18s17.24-12.62,23.7-17.21,25.32-4.59,31.24-2.3,12.93-8.61,15.62-12,11.32-12.62,8.08-14.34-17.23-1.15-17.23-1.15-21,21.23-26.94,16.64,4.85-10.9,2.7-12.62-9.16,4-9.7.57-5.38-3.44-5.38-6.88,5.38-2.3,4.84-8.61,0-7.46-8.08-7.46-18.85,16.07-18.85,16.07,9.16,6.88,0,15.49-12.39-1.15-19.93-1.72,1.62,4.59-15.62,5.16-26.93-9.18-35.55-9.18-27.42,9.16-35.72,9.45-16.31-2.65-16.31-3.83,4.15-4.71,3-5.59-6.91-3-14.38-2.65-9.95-7.37-9.95-7.37l-22.12.3v3.53H386.37s1.66-8.24-2.21-8S372.55,174,366.46,174s-24,4.12-30.41,4.71-8,5.89-13.83,5.6a6.06,6.06,0,0,1-6.08-5.6c-6.08-.59-13.82-5.89-18.25-5.89s-44.84-2.76-51-3.55-7.36-4.7-16.68-4.7-36.54,2.61-37.27,2.61-9.32,6.53-11.28,6.79-12.51,1.83-13.49,2.09-5.39,6-13.73,6-15.7,4.18-15.94,6.27,12,16.72,10.3,17.24-17.66.52-19.37.52-2.7-2.61-4.66-2.09-2,1.05-4.42,2.61-21.33,0-21.33,0l-.74,11s32.13-1.83,31.88,1.31-5.15,1.3-8.58,4.44-2.45,5-4.66,6.27-7.85-.26-11,0-4.41,3.13-6.86,4.7-7.11-1.05-10.55,0S77,242.67,75.26,244.24s-10.05-1.31-10.54,2.35-7.6,11.49-6.87,15.41,12.26-4.18,14-1.57-7.36,9.66-7.36,9.66,22.3-.26,23.54,2.09c.69,1.54-38.92,21.23-42.61,24.64,10.79-.48,20.84-6.26,30.31-11.19,2.94-1.53,17.12-9.2,18.79-10.56,8,1.88,16.24-1.9,23.27-6.43,9.85-6.34,20.23-14.13,31.06-18.4,0,0-14.38,15.08-10.73,15.22,2.24.08,11.72-1.66,19.18-5.32,6.86-3.36,11.55-8.58,17.34-10.36,7.06-2.15,12.94,8.47,20.88,8.86,5.07.24,12.27-2.37,16.84.72,4.42,3,3.31,10.37,7.47,13.93,2.55,2.18,6.69-.2,8.67,2.52,2.32,3.19-1.54,5.72-1.31,10.08.26,4.82,4.49,11.57,4.73,17.07.34,8-3-1.14-4.2,7-1.08,7.39-4.41,20.95-3.16,28.27,1,5.5,14.56,17.77,13.93,20.43-1.27,5.3-13.27-10.87-16.55-11.75-8.35-2.26-.09,20.49.76,27.06,1.61,12.37-3.8,23.32-10.54,32.91-5.79,8.26-19.1,16.35-21.85,25.61-1,3.49-1.39,7.19-2.53,10.64-1.95,5.88-5.45,7.64-5.79,13.89-.33,6,3.76,12.79,5.19,18.5,2.34,9.29-3.82,17,2.29,26C195.28,510,201,518,205.16,527.68c1.91,4.41-.68,17.86,1.35,22.25,1.43,3.11,5.6,2.78,7,5.86,2.62,5.93-6.76,10.76-5.27,16.75,1.52,6.15,11,5,13.92,9.21,2.56,3.7-1.55,8.27.45,12.68,1,2.26,7.06,11,14.28,15,2.56,1.41-7.26-18.34-7-23,.14-3,.71-6.16-.76-8.66a18.85,18.85,0,0,0-3.22-3.4,13.84,13.84,0,0,1-3.78-10.69c.16-1.93.72-3.85.43-5.76-.6-3.79-4.22-6-6.22-9.23a12.07,12.07,0,0,1,.9-13.65c13.21-15.64,11.6,13.37,15.07,18.29,8.63,12.26,9.1,28.79,18.61,40.74,11.39,14.31,19.74,28.84,15.82,48.65-2,10,8.29,9.15,12.85,15.7,4.2,6,13.08,4.47,17.36,10.53,5.36,7.57,16.14,7.56,23.59,11.4,3.82,2,6.69,6,11.17,5.6,5.72-.54,9.83-6.93,16-3.55a29.34,29.34,0,0,1,3.75,2.87c3.39,2.58,6.42,2.26,9.11,5.53,2.18,2.67,4,5.92,6.62,8.13,4.22,3.54,6.68,1.22,11.1,2.54,2.41.72,2,3.16,2.89,5.1,1.26,2.86,4.76,2.45,7.4,2.91,3.53.65,11.87.42,14.13,3.46,1.82,2.43,1.67,5.92,3.05,8.59,2.21,4.29,6.78,2,10.65,2.65a4.16,4.16,0,0,1,2.59,1.21,5.26,5.26,0,0,1,.82,3.15,2.25,2.25,0,0,1-.07.82c-.23.66-1,.87-1.63,1-3.74.92-5.64,2.17-5.6,6.45a5.59,5.59,0,0,0,.71,3.2,6.3,6.3,0,0,0,2.83,1.83,56.1,56.1,0,0,1,8.11,5.09,12.8,12.8,0,0,1,5.5,7c1.44,4.94,6.74,3.66,10.42,4.18,2,.28,3.79.44,5.23,2.18,1.82,2.18.65,6.51,5.11,6,3.57-.42,4.71-4.49,5.72-7.52,1.1-3.3,6.52-8.2,10.12-6.05,2.78,1.66,4.31,10,5.5,12.91,2.35,5.78,6.66,12,6.27,17.55-.46,6.54.77,14.26-1.58,20.48-1.67,4.42-6.66,12.26-11,14-1.13.45-2.45.66-3.2,1.67-1.8,2.39,1.35,6.55-.61,8.8-3.38,3.86-6.43-1.23-9.11,5.08-1.47,3.44-1.76,7.19-2.93,10.7s-3.52,6.51-3.89,10.42c-.74,7.77,4.09,9.86,10,10.87a2.81,2.81,0,0,1,2.11,1.13c.55,1,.05,2.2-.57,3.11-1.86,2.72-4.71,4.46-7.05,6.71-6.27,6-2.81,22.06,4.5,26.31,6.53,3.79,3.56,1.89,5.34,8.85,1,3.84,3.9,4.32,5.5,7.45,2.57,5-.51,11.58,3.29,16,1.45,1.68,3.6,2.47,5.25,3.92,5.05,4.42,4,12.36,7.13,17.94,1.69,3.06,6.62,10.67,9.71,11.61,0,0-4.1,12.58,22.4,23.47,30.81,12.65,33.45,44.53,33.68,71.26.14,17,1.4,32.22,1.58,38.16.45,15.29,5.2,44.54,7.68,51.53s-.9,33-.67,36.35-1.59,11.32.45,17.82,4.75,21.91,6.55,30.34,4.52,5.77,10.18,7.22,6.24,38.53,7.4,44.08,4.92,2.46,7.53,11.4,1.44,5.55,1.44,10.79,2.61,10.8,4.35,15.73,6.65,5.86,9.26,8.94-.58,8.32,1.74,9.25,9.26,10.48,12.15,12.64,5.5-3.39,12.16-8.94,7,7.09,9.84,9.86,4.05,8.64,4.05,8.64,37.92,3.39,26.63,0-25.18-17.58-26.34-19.12-.29-4-6.65-9.56-4.64-14.49-1.45-21.27,8.68-17.88,6.66-19.11-16.21-11.1-15.92-17.27S636,1272,636,1268s-1.51-6.89-2.38-9,5.56-7,7.3-8.84-7.82-1.85-10.71-1.85-5.5-9.86-3.77-12.64,11.87,2.47,18.82,0-3.06-14.25-3.06-18.76,17.63-1.5,22.56-4.5a25.65,25.65,0,0,0,9.87-9.76c2.82-4.51.71-9-.7-9.77s-.71-5.25-2.12-10.51-16.92-3.75-14.1-7.59,35.25-.67,35.25-.67c3.52-.75,11.28-32.29,11.28-39.8s8.53,1,9.87,0-2.12-7.51,1.41-9.76,10.57-9,10.57-17.27S724,1102,721.9,1093s2.82-16.52,11.28-21,15.51-5.25,20.45-7.51,16.92-3.75,19-9,0,0,5.64-7.51,0,0,0-4.5,7.05-12.77,9.17-15.77-.71-9.76-.71-16.52,4.94-11.27,5.64-15.77-1.41-9-3.52-15.77-2.12-14.27,2.11-17.27,10.58-12.77,10.58-17.27,12-6,17.62-21,0-28.53,0-30.66-2.78-7.21-4.77-7.21a41.89,41.89,0,0,1-15.93-4.24c-6.77-3.39-5.18-8.06-13.15-13.57s-7.56-3-17.12-3.82-15.13-6.79-18.32-6.79-8,8.49-8,8.49-.8-13.58-4-16.55-14.73-5.94-19.11-5.94-8.37,5.94-8.37,5.94l-.39-10.18s-12.35-4.66-14.34-7.21,3.58-7.21,1.19-10.6-4.38-5.09-6.77-8.91-.79-11.88-.79-11.88S671.85,778,659.5,779.7s-19.51-4.24-21.9-6.79-7.17-3-7.17-3a31.17,31.17,0,0,0-7.17-11c-3.56-3.5-8.46-5.46-13.13-6.38a25.73,25.73,0,0,0,1-11.65c-.05-.31-3.22-10.72-3.79-8.25-2,8.83-8,1.26-12.87.66-6.85-.83-10.12,5.67-16.57,5.68s-8.23-6.82-13.82-7.32a30.73,30.73,0,0,1-12.39-3.35c-4.19-2-8.38-8.93-11.63-8.43s-3.73,4.46-7,6-3.72,7.44-6.51,6.94-4.19-5-.94-7.93,4.19-7.44.47-7.44-7.91,7.44-14.43,8.43-14,5.95-16.3,7.44-2.79,10.91-3.25,12.39c-.57,1.81-3.24,3.38-4.46,4.65-2.41,2.51-4.39,9.1-8.64,8.15-4.91-1.1-4.82-10.9-11-12.06-2.33-.43-4.67.5-7,.86-1.69.25-3.42.21-5.11.51-4.8.87-6.64,4.48-11.78,3.28-4.17-1-7.9-3.77-10.85-7a19.87,19.87,0,0,1-4.8-7.94c-1.75-6.26,1.05-12.81,2.45-18.81,1.64,0,2.72-20.68,2.46-22.82-.4-3.41-2.2-4.46-3.48-7.3-2.48-5.49-5-4.07-10.51-3.26-7,1-16.56,5.29-23.3,1.89-7.38-3.73,1.73-12.26,2.56-17.54.86-5.5,5.6-8.71,8.18-14.67s3-16.5,3-16.5a5.3,5.3,0,0,1,4.3-4.12c3.87-.92,1.72-5.5-5.16-6s-19.36,5.5-23.31,6-1.22,19.25-9,22-18.51,3.2-21.09,4.12-4.73-2.75-7.74-3.21-4.31-1.83-9.9-7.79-6-15.58-6.45-28.87,4.3-21.54,6.88-27.5,3.87-16,5.16-20.17,2.16-5,17.22-17.42,48.62-3.66,51.2-3.2-4.73-7.8-2.58-8.25a145.26,145.26,0,0,1,19.79-2.3c6.81-.32,13.17,3.14,16.21,5.11Z" transform="translate(-41.38 -79.5)"/><path class="cls-1" d="M1071.61,482.2c7.92-.23,13.8,4.72,21.69-8.25a39.85,39.85,0,0,0,5.11-13.4c1.9-10.19,5.69-19.7,16.35-21.09,12.55-1.64,7.64-5.44,11.76-16,2.42-6.22,10.58-8.92,15.89-5.24,1.61,1.11,3,2.72,4.93,3,3.32.54,5.76-3,8.16-5.51a17.27,17.27,0,0,1,14-5.31c9.85,1,11.89,9.33,16.41,17,5.75,9.76,17.48,8,25.35,16.57,3.82,4.17,11.69,13,9.76,16.49-1.31,2.34-14.8,10.6-15.47,10s.09-2.88-.17-3.13-1.56.4-2.42,1.15a2.12,2.12,0,0,0-.2,3.09c3,3.18,13.74,9.92,17.62,10.57,4.13.7,2.5-9.34,3.66-10.75a7,7,0,0,0,1.08-4.25c.14-4.27-1.67-15.14,2-18.22,3.39-2.84,7.93,2.34,12.24,2.15.68-2.05-1.24-4-3-5.08a47.92,47.92,0,0,0-11.83-5.42c-1.24-.37-2.64-.8-3.27-2-.35-.67-.4-1.49-.72-2.18-.74-1.55-2.57-2-4.13-2.42a20.41,20.41,0,0,1-12.15-10.19c-1-1.92-1.74-4-3.16-5.61-4.56-5.05-17.45-13.39-5.17-19.95,13.87-7.4,18.07,12,27.21,17.81,3.17,2,6.84,2.92,10.12,4.72a23.7,23.7,0,0,1,11,13.64c1.31,4.16,1.51,8.61,2.55,12.85,1.39,5.63,6,12,10.15,15.65,5.45,4.77,11.14,2.48,17.39,5.83,1.06.57,2.51,1.16,3.26.19a2.83,2.83,0,0,0,.26-2.15,76.38,76.38,0,0,0-2.33-10.14,19.17,19.17,0,0,1-1.22-6.06c.24-7.06,11.64-8.16,16.5-8a86.54,86.54,0,0,0,24.24-2.22c.49-.1,1.08-.31,1.17-.84a1.35,1.35,0,0,0-.25-.86c-1.54-2.56-4.22-4-6.42-5.95s-4.05-5.06-3-7.88a24.92,24.92,0,0,1,1.91-3.17c1.22-2.24,1.16-5,1.52-7.53,1.58-11.48,13.64-26.8,25.29-25.66,3.58.35,11.7,7.38,10.26,10.52-9.78,21.31,16.69.29,19.87,2-.4-4.29-4.62-2.38-7.31-2.37s-6.19-1.48-5.79-4.31c.24-1.74,1.89-2.77,3.35-3.56l20-10.75a10.12,10.12,0,0,1,5-1.64,3.71,3.71,0,0,1,3.63,3.32c.11,8.46-9,15.87-13.22,21.3a1,1,0,0,0,.63,1.62,59.28,59.28,0,0,1,9.22,1.78c8.09,2.71,31.87,16.87,27.15,29.06-2.82,7.28-11.25,5.33-16.74,4.84-4.53-.4-9.07,1.5-13.56.84-6.67-1-12.62-9.39-19.13-9-1.91.11-3.76.79-5.68.82-3.17.06-6.41-1.65-9.4-.52-2.33.88-3.81,3.25-5.46,5.21s-4.1,3.75-6.44,2.91c-1.2-.43-2.13-1.48-3.31-1.94-3-1.17-6,1.75-7.79,4.52-6,9-12.09,2-20,7-2.47,1.56-3.9,5.4-2.08,7.78s6.55,2.54,7,5.77c.18,1.33.88,5.09.46,6.27-.49,1.39-2.72,1.68-2.77,3.31-.06,2,3.1,1.59,4.49,2.94s.49,4.63,2.17,5.84c1.07.78,2.49.19,3.72-.22a12.81,12.81,0,0,1,13.06,3.27c1.22,1.26,2.9,2.89,4.31,1.89s.69-3.31,1.38-4.9a3.44,3.44,0,0,1,3.93-1.73,10.09,10.09,0,0,1,4,2.34c2.22,1.8,7.56,8.05,10.28,8.25,3,.22,4.92-3.55,7.59-4.68,4.07-1.73,9.79-1.43,14.14-2a3.35,3.35,0,0,1,2.17.2c1.13.67,1.23,2.34,1.19,3.71-.29,8.47-2.89,15-4.49,23.05-1.44,7.23-.5,14.74-4.61,21.27-3.42,5.46-8.88,6-14.89,7.16-1.93.37-4,.64-5.74-.41s-2.58-3.25-4.05-4.7c-5.44-5.38-8.49,1.38-12.08,4.3-4.82,3.92-7.12,2.11-12.58.15-11.06-4-23.4-4.44-34.11-8.38-8.39-3.09-22.27-16.18-30.13-3.46-4.09,6.63,7.12,13.67-3.74,19.74-7.71,4.31-12.92-8.7-21.76-8.23-10.2.54-8.92-12-18.06-15.25-3.66-1.33-7.67.53-11.52.13-4.84-.5-8.72-4.45-13.33-6.12-3-1.09-6.93-1.74-7.87-5a6.93,6.93,0,0,1,.26-3.92,15.19,15.19,0,0,1,7.86-9.35c-.84-1.29-3.11-4.56-2.72-6.29.76-3.37,3.78-5.9,3.27-6.81-1.35-2.36-3-3.55-5.29-2.17-3.74,2.29-2.41-5.75-6.88-3.79-4,1.77-14.19,2-21.55,3.24-4.51.78-6.41,3-9.75,3.17-5.47.31-3.49-1.79-8.82-1.26-8.81.89-26-4.42-32.25,4.06-1.28,1.73-2,3.89-3.35,5.56-6.39,7.89-31,10.14-36.74.93a9,9,0,0,0-1.89-2.59,1.89,1.89,0,0,0-2.75.22,3.82,3.82,0,0,0-.37,1.51c-.42,3-2.59,5.33-4.35,7.73-3.46,4.73-1.21,7.49-6,10.68-8.16,5.41-20.55,10.09-22.95,21.88-.71,3.44.36,7,.25,10.54-.26,8.39-10.75,21-18.42,22.71-2.4.55-5,.45-7.22,1.44-5.44,2.38-1.42,8-3.84,11.6-2.31,3.41-7.76,2.41-10.25,6.53a12.8,12.8,0,0,0-1.51,5c-.43,3.26,1.34,9.85-.45,12.33s-6.1,2-8.45,3.75c-4.5,3.35-2.86,6.2-4.83,11a14.9,14.9,0,0,1-2.67,3.7c-6.31,7.53-.88,7.89.86,13.26,1.94,6,.68,9.78.93,16.17s3.66,11.31,3.14,17.68c-.3,3.71-4,18.71-6.88,20.92,0,0-7,5.43-7,8.15s8.87,6.76,8.29,12.16c-.76,7-6.29,14.5,2.92,20,2.3,1.37,5,1.9,7.38,3,4.23,1.91,7.59,5.45,10.84,8.91,1.93,2.06,4,4.3,4.42,7.16.44,2.67-.57,5.43-.09,8.09.56,3.05,2.93,5.3,5.16,7.3L1022.15,791c2.82,2.53,5.77,5.13,9.34,6.11,13.27,3.63,22.25-14.28,36.22-7.32,14.8,7.37,26-3.82,38.84-9.74,6.09-2.81,14.87-4.42,21.32-2.08,10.53,3.82,6.55,10.86,12.64,17,8.71,8.77,19.22-1.73,28.36,2.64,15,7.2.88,24.64,2.1,37.42.26,2.7,1,5.55,0,8s-3.52,3.74-4.45,6.14c-1.26,3.29.86,6.86,2.88,9.7,7.92,11.11,24.82,26.9,26,41.73a19.28,19.28,0,0,0,6.91,13.56c.74.53.31,6.56.48,7.62.94,5.76,3.13,6.51-1.1,11.34a4.7,4.7,0,0,0-.93,1.36,3.43,3.43,0,0,0,.83,3.24,23.73,23.73,0,0,0,2.56,2.24c4,3.59,4.56,10,3.85,15.48-.39,3.06-1.19,6.3-3.4,8.3-1.64,1.48-3.93,2.14-5.28,3.93-1.72,2.3-.61,4.42-1.08,6.91-.4,2.06-1.6,4.15-2.25,6.18-1.63,5.1-2.72,10.38-4,15.57-1.91,7.44-.64,17.59-.64,23.68s5.72,5.41,6.35,10.82-1.27,14.21,6.35,19,10.17,13.53,9.53,23c-.41,6.06.7,12,2,17.93,1.12,5.26.48,9.53.21,14.94a14.52,14.52,0,0,0,.22,4.32c.78,3.08,3.43,5.19,6.12,6.58a35,35,0,0,1,5.73,3.14c3.2,2.5,5.86,6.72,5.91,10.82.07,5-3,9.39.51,14,4.12,5.41,14.26,19.59,7.32,22.32-4.55,1.78-2.44,5,1,6.52-1.82,5.23,9,4.78,11.57,4.1,4.11-1.12,8-3.29,12.22-3.78,1.39-.16,2.81-.13,4.2-.39a40.82,40.82,0,0,0,4.52-1.43c6.36-2,13.16-.85,19.78-.35a6.41,6.41,0,0,0,3.68-.48c1.46-.82,2.17-2.59,3.32-3.86,4-4.4,10.21-1.26,14.59-4.17,3-2,6.89-7.94,9.55-10.94a52.07,52.07,0,0,0,5.14-7.36c5-8.18,9.32-16.68,15.84-23.75a26.7,26.7,0,0,0,4.67-5.86,20,20,0,0,0,1.65-6.33c.72-5.59-.78-15.82,3.55-20.2,2.26-2.28,5.84-1.73,8.91-2.34,5-1,9-5.63,10.63-10.82,1.56-4.92,1.94-12.48.3-17.44-1.78-5.4-6.13-9.13-5.72-15.39.5-7.54,7.88-13.82,12.84-18.25,6.37-5.67,12.78-11.38,20.07-15.59S1421.33,995,1421.42,985c.08-9.31-2.24-18.43-2.24-27.74,0-4.78,3.59-5.35,3.59-6.69,0-3.53-7.1-10.32-8.68-13.58-2.95-6.11-4.46-14.39-2.23-21,.68-2,1.65-4,1.51-6.17-.18-2.93-3.22-3.86-4.37-6.26-1.45-3-1-7,.33-9.92l8.46-19.27a40.1,40.1,0,0,1,4.51-8.43c1.92-2.53,4.38-4.52,6.56-6.8,5.28-5.54,8.75-12.69,12.81-19.3,3.72-6.06,8-11.38,14-14.9,6.2-3.64,11.44-9,16.81-14.15,7.52-7.23,12.54-17.59,16.14-27.35,4.11-11.14,10.52-21.23,13.72-32.77a106.11,106.11,0,0,0,4-25.09,1.79,1.79,0,0,0-.49-1.25c-3.68-3-11.36,2.14-13.77,4.79A6.9,6.9,0,0,1,1490,731a4.73,4.73,0,0,1-1.83.27,46.42,46.42,0,0,0-6-.08c-3.18.4-4.76,3-7.47,4.38-3,1.52-6.52,1.65-9.73,1.91-7.2.6-16.73.24-20.15-7.92-4.54-10.83-12.89-26.09-23.07-31.85-2.28-1.28-4.86-1.9-7-3.35-10.29-6.86-3.51-21.4-11.42-28.18-2.33-2-5.64-2.43-7.86-4.58s-2.87-5.35-2.87-8.43c0-11.36,2.09-21.48-6.66-30.3-2.9-2.94-6.52-5.09-9-8.46-4.13-5.66-4.16-13.49-6.68-20.13a54.43,54.43,0,0,0-3.84-7.58l-2.17-3.79c-4.72-8.24-16.35-20.93-14.51-31.35a4.13,4.13,0,0,1,3.49,1.91,80.39,80.39,0,0,1,10.49,17.31c4.61-4.72,2.85-13.7,6.32-19.44-.28,7.31-1.32,14.52,4.06,19.67,3.36,3.21,2,9,4.84,12.61,3.07,3.9,8.73,6.77,11,11.22,1.3,2.51.72,5.87,2.15,8.18,1.73,2.8,5.4,3.5,7.62,6.12,4.94,5.8,7.13,14,7.59,21.63.26,4.23.34,9.14,3.5,11.72,1.47,1.2,3.36,1.64,5,2.56,4.2,2.37,6.19,7.16,8.2,11.44.74,1.58,3.21,1.84,4,3.68s.49,6.57,1.48,8.94,6.17,4.21,8.15,6.57,2.22,6.84,2.22,13.68,4.19,14.46,4.44,16.82c.49,4.65-.59,10.19,4.73,11,10.8,1.58,19.35-10.28,29.29-12.07,2.33-.43,4.85.35,7-.63a12.4,12.4,0,0,0,3-2.36c6.85-6.29,22.19-2.79,23.82-13.29.41-2.68.75-5.71,2.78-7.36a9.11,9.11,0,0,1,2.19-1.19c3.63-1.54,7.63-1.36,11.31-2.64s5-3.92,7.17-6.82c3.15-4.13,3.72-1.9,7.9-3.48,2.16-.81,4.54-6.37,6.28-8.43,2.86-3.41,5.92-7.72,6.42-12.4a6.11,6.11,0,0,1,.4-2.18c1-2,4.73-3.53,6.31-5.69a20.46,20.46,0,0,0-2.54-26.92c-1-1-2.5-.95-3.86-1-12.85-.67-16.35-10.84-18.9-22.1-.09-.41-.25-.88-.64-1s-.81.35-1.06.76c-5.63,9.33-16.74,25.62-29.6,19.39-7.33-3.56-2.3-14.18-7.8-19.65-.8,14.24-7.12,7.7-5.88-3.12.11-1-9.65-8.86-10.62-10-4.72-5.66-12.63-16.26-7-23.6,5.3-6.92,7.72-7.29,16.72-2.64,6.5,3.35,3.68,13.31,7.28,19.32a8.17,8.17,0,0,0,2.89,3.08,20.49,20.49,0,0,0,4.26,1.25c7.68,2.26,19.92,14.32,28,9.1,1.72-1.1,2.71-3.3,4.57-4.11,4.69-2,6.71,4.62,9,7.42a25.11,25.11,0,0,0,13.64,8.67c5.74,1.46,11.72,1.34,17.62,1.21l13.2-.29c6.87-.15,20.65-4.65,27.16-.75,6,3.61,1.19,13.66,10.5,14.78,4.6.55,6.64,2,8.27,5.67,1.36,3.09-1.72,7,4,7,2.17,0,6.53-.1,7.87,2.26,2,3.57-3.3,4.77-5.38,5.71a.63.63,0,0,0-.34.28c-.13.3.2.59.48.71,1.9.78,4.11.25,6,1.1,4.79,2.15,7.3,12.85,13.86,6.42a10.1,10.1,0,0,0,2.72-6.81c.06-1.36-.07-2.8.55-4a3.1,3.1,0,0,1,3.43-1.6c5.35,1.43,2.92,13.92,4.32,17.9,1.17,3.32-2.34,10,0,14.11s2.34,14.11,2.73,16.2c.82,4.22,4.07,8.66,5.41,12.56a131.16,131.16,0,0,0,8.28,19.51c2.62,4.89,6.92,10.21,7.34,16,.39,5.39,1.17,7.88,4.68,12.45s4.28,8.71,5.06,14.52,4.29,12.86,10.52,13.69,4.29-7.05,8.57-7.47,4.29-10,6.62-10,4.29-.83,4.29-5-3.12-2.91-3.12-7.47,5.07-14.53,5.07-21.58c0-7.28-9.54-17.15-2.84-23.42,3.18-3,7.66-3.69,11.08-6.27,7.6-5.74,12.84-13.9,18.74-21.41,5.58-7.1,17.1-13.64,17.61-23.67a9.43,9.43,0,0,1,.48-3.45c1.23-2.69,4.77-2.5,7.57-2.57,6.58-.17,13.36-4.44,19.74-6,10.17-2.49,9.45,4.18,13.15,12.15,1.73,3.73,6.09,5.91,8.95,8.57,3.71,3.45,5.76,7.71,8.16,12.2,1.68,3.15,3.77,5.29,4.54,8.82a51.68,51.68,0,0,1,.67,12.86c-.15,2.8-.42,6,1.47,8a5.35,5.35,0,0,0,4.49,1.38c9.93-1.14,10.56-8.59,14.61-17.41-.33.74,4.33,8.69,4.83,10a82.44,82.44,0,0,1,3.53,9.5c4.12,16.64,12.73,32.09,10.15,50.11a89.57,89.57,0,0,0-.56,20.76,6,6,0,0,0,1.14,3.45c1,1.18,2.73,1.31,4.2,1.75,13.06,4,15,28.33,16.86,39.49a2.53,2.53,0,0,0,.53,1.41c.52.54,1.36.44,2.07.63,1.62.42,2.47,2.35,2.74,4.11s.18,3.63.93,5.23c1.43,3,5.07,3.73,8.08,4.83,4.83,1.77,9.19,9.27,13,9.75,1-5.47-4.49-9.37-4.49-14.15,0,0-2.12-12-1.88-15.79s-5.89-11.53-12.71-17.79-10.35-5-10.35-5l.47-4.51-2.35-.5v-8l-2.12-.75-.71-9s-.59-2-1.41-2.25-3.18-1.08-3.71.3c-.28.77-.49,3-1.23,3.7,0,0-2.11-7.79-1.68-11.42.79-6.62,3.79-12.35,3.48-19.25-.08-1.8-.33-3.6-.34-5.4a21.13,21.13,0,0,1,2.44-10,2.57,2.57,0,0,1,.85-1,1.85,1.85,0,0,1,1.71.09c2.88,1.41,3.55,6,6.51,7.14,1.24.5,2.64.29,3.92.65,3.49,1,3.17,4.35,5.11,6.66,1.74,2.07,4.49,1.46,6,3.36,2.55,3.15,2.53,10.95,6.2,12.38,2.2.86,4.85-.5,6.93.66,3,1.71,4.78,19,5.79,19s5.94-8.19,8.64-12a11.74,11.74,0,0,0,1.89-3.54,18.41,18.41,0,0,1,.47-2c.66-1.84,2.57-2.78,4.38-3.19s3.72-.46,5.38-1.33c2.43-1.27,7.8-7.7,8.86-10.22,1.24-2.94-.16-7.8-.73-11-2.39-13.5-7.9-28.52-17-38.61-6.86-7.62-17-13.16-19.28-23.43-.38-1.72-.33-3.91,1.11-4.79.89-.55,2.19-.48,2.7-1.44.39-.73.07-1.63.11-2.47a5.46,5.46,0,0,1,1-2.56c2.34-3.76,4.75-7.6,8.16-10.3,4.83-3.83,16.3-5.55,18.19,2.81.57,2.5-.54,6.89-.26,7.63s3.3-.14,4.31-1.39c1.14-1.41.8-3.52.59-5.37-.26-2.27-.31-6.57,2.5-6.92,5.38-.67,9.85.88,14.73-2,3.66-2.16,6.79-5.64,11.18-6,3.47-.31,7.11,1.49,10.34.09,3.8-1.65,5-6.82,8.16-9.61,1.94-1.71,4.65-2.56,5.93-4.88.75-1.35.87-3,1.51-4.43,1.15-2.58,3.74-4,5.74-5.88,5.06-4.79,7-15.38,10-21.85a54.44,54.44,0,0,0,4.14-18.29c0-4.41-10.66-3.15-11.25-7.57s7.1,2.53,6.51-7.57-9.47-12.61-12.43-18.92c-1.33-2.82-1.61-6.36-3.54-8.82-1.1-1.4-2.83-2.16-4-3.55-2-2.34-1.94-3.54-4.92-4.77-1.77-.73-3.75-.66-5.51-1.53-10.19-5,1.2-18.73,7.79-19.63,2-.27,4.09-.55,5.58-2,5.76-5.44-3.83-4.87-5.56-5.39-1.56-.46-2.68-1.86-3.88-3s-2.87-2.13-4.38-1.52a5.17,5.17,0,0,0-2,1.88c-1.29,1.7-2.61,3.49-4.44,4.46s-4.38.85-5.61-.9-.62-4.66-1.43-6.87c-1.06-2.88-4.35-4-7.24-4.27s-6-.25-8.36-2.13c-3.88-3.14,2.91-7,5.21-7.53a15.87,15.87,0,0,0,3.48-1c2.18-1.08,3.5-3.47,4.49-5.81s1.84-4.84,3.57-6.62,4.68-2.57,6.53-.92a8,8,0,0,1,2,4.09c.66,2.59,2.57,4.59,3.27,7.16.55,2-.15,9.81,2.48,10.23,2.84.45,5.58-9.86,7.69-11.55s4.66-1.75,7.13-1.45a9.57,9.57,0,0,1,3.65,1.08c3.09,1.83,6.89,7.34,8.18,10.69,1.39,3.58.81,8.47,5.91,8.3,1.91-.06,3.85-.5,5.69,0,2.08.58,9.76,11.21,8,13.07-1,1.09-3.57,1.63-3.06,3s4.85,2.44,6.12,5.43a35.27,35.27,0,0,1,2,10.05c.25,3-.26,4.89,3.06,5.17s7.39-4.08,11-4.08,7.14-4.35,6.89-6-7.65-17.66-12.5-21.73c-4.56-3.83-21.27-12.82-18.06-20.85,1.83-4.57,6.74-7.32,8.07-12.06,1.45-5.19-2.32-9.22-.59-15.18.87-3,2.39-6.27,5.25-7.06,6.8-1.89,15.11,11.14,21.22,2.56,2.88-4.06,1.26-10,2.3-14.57,1.38-6,4.58-10.95,5.35-17.38.74-6.22.49-12.47,1.89-18.54.89-3.83,1.52-5.76-.39-9.25-3.13-5.71-8.83-9.58-12.1-15.16-1.13-1.92,0-9.33-2.7-12.68a132.08,132.08,0,0,0-18.31-18c-2.58-2.16-6.14-4.26-8.93-2.43s-3.27,6.67-6.43,7.35c-2.3.5-4.29-1.68-5.63-3.73-4.8-7.35-12.14-6.23-17.31-11.73a3.85,3.85,0,0,1-1.16-2.43,5.17,5.17,0,0,1,.53-2.1l8.81-21.71c1.26-3.11,2.56-6.28,4.71-8.77,5.88-6.8,15.87-6.45,24.52-5.6,5.27.53,9.65,1,14.84.09s10.62-3.13,15.46.22c2.87,2,5,5.7,8.37,6,4.69.35,7.1-5.95,7.17-10.95s-.36-10.92,3.33-14,9.21-1.16,13.56.94c3.4,1.64,13.53,10,17.08,9.7,1.7-.12,5.09-5.7,5.66-6.13V249l-4.24-.39v-6.33a7.13,7.13,0,0,1,4.24,0c2.22.73,9.46,13.53,9.28,16.51s-4.6,4.2-4.68,4.22c-.54.15-.16,11.73-.17,13.06.78,0,1.65.35,2.42.3.18,9.14-14.1,6.73-8.33,20.2,2.25,5.24,6.84,8.85,11.42,11.91s9.46,5.9,12.88,10.37c2.34,3.05,3.87,6.71,6,10a46.11,46.11,0,0,0,13.75,13.41c5.79,3.65,6,3.09,7-3.59.34-2.22-.26-4.1.36-6.29.43-1.52,2.82-1.68,3-3.61.35-4.64-4.18-4.48-3.71-8,.61-4.48,6.81-3,6.41-6s-9.21-7.88-9.21-11.51-2.8-10.22-5.4-11.93-1.4-6-7.4-6.18-10.2,3-10.2-3.41-2-6-2-6c.15-6.64.55-13.51,8.32-14.62a12.59,12.59,0,0,1,10.63,4.13,4,4,0,0,1,2.24-4.15,7.48,7.48,0,0,1,4.77-.37c5.06.92,9.56,7.32,13.51,4.65,0-.67,4.08-6.41,4.59-8,1-3.16,1-6.83,2.52-9.83,4.43-9,14.34-5.11,22.1-8.22,1-.41,2.2-1.18,2-2.29-.19-.9-1.18-1.25-2-1.44q-13.1-3-25.94-7.08c-1-.32-2.21-.79-2.58-1.86-.55-1.6,1.15-3.15,2.74-3.34,7.16-.85,9.37-8.51,17.69-8.48a9.46,9.46,0,0,1,7.58,3.46,15.5,15.5,0,0,0,1.71,2.27c2.58,2.36,6.47.14,9.87,0,3.72-.11,7,2.48,9.69,5.24,1.93,2,9.38,7,9.19.56,0-.43-7-7-5.7-7.27,2-.35,3.32,2.84,4.32,0s-8-9.92-19.29-11.69-18.63-2.83-26-6.73-16.29-2.83-21.95-5.31c-7.46-3.28-16-1.29-23.65-3-4.66-1.05-2.44-.83-6.55-3.68a20.25,20.25,0,0,0-12.9-3.43c-3.66.23-7.17-.79-10.65-1.81l-14.24-4.18c-6.45-1.89-13-3.8-19.67-3.85-1.25,0-2.89.4-3,1.74a2.83,2.83,0,0,0,1.16,2.08c3.39,3.24,12.88,9,13.47,14.15-5,.32-13-7.55-18.26-9.65a63.21,63.21,0,0,0-21.35-4.58c-12.55-.44-25.8,2.77-37.25-2.74-7-3.36-11.65-7.38-19.44-7.38a89.91,89.91,0,0,0-23.23,2.95,18,18,0,0,1-5.36.93,17,17,0,0,1-4.26-.93c-15.62-4.84-31.79-12-48.11-13.22-5.62-.41-11.32.05-16.83-1.19-4.74-1.08-9.43-3.43-14.23-2.65-2.48.39-5.18,2.24-5.07,4.91.1,2.18,2,3.69,3.19,5.47,6.81,10.09-15.81,4.4-18.67,5.61-6.77,2.89-9.82,2.53-14.22,0s-6.09-5.77-7.45-3.24,2.71,13,2.71,13-11.51-5.41-14.56-7.93c-2-1.7-5.73-.93-7.47-2.75-1.88-2-.88-5.75-2.06-8.38-2.77-6.22-10.32-9.73-16.36-10.61-3.21-.46-27.08,2.3-29.3,2.27a25.74,25.74,0,0,1,3.37,5c-4.4.43-8.6-3.36-12.73-4.86a33,33,0,0,0-15.47-2.09c-4.65.58-9.16,2.38-13.84,2.28-4.87-.1-9.46-2.25-14.16-3.62-11.55-3.37-21.52,1-32.69,4.08a5.1,5.1,0,0,1-3.08.19,2,2,0,0,1-1.24-2.61,2.91,2.91,0,0,1,.88-.9l8-5.91c2.5-1.84,5.17-3.94,6-7.07,1.94-7.57-13.4-8-17.24-8.27-12.85-1-23.76-4.31-36.83-7.85a29.8,29.8,0,0,0-10.54-1,14.88,14.88,0,0,0-7.69,2.63c-1.31,1-2.38,2.31-3.62,3.41-6.65,5.94-16.39,4.55-25.07,4.47a69.37,69.37,0,0,0-26.42,5c-2.21.88-4.5,2-5.82,4.07-2.56,4.07,2.8,12.57,5.11,15.81-3.48-1.24-5.6-4.47-8.75-6.38-5.83-3.54-13-2.74-19.69-1.84-2,.27-4.44,1-4.77,3.09-.2,1.31.58,2.54,1.31,3.62,3,4.41,7,9,9,13.94-5.54,1-10.34-6.8-16.13-5-2.86.88-6.69,3.48-9.7,3.29-3.49-.21-3.22-1.89-5.7-3.24-2.15-1.16-2.12-3.86-5.64-2.11-3.72,1.86-2.79,6.69-.9,9.66,1.6,2.52,3.81,4.71,4.54,7.65a12.41,12.41,0,0,0,1,3.57,4.62,4.62,0,0,0,4.4,1.89c1.66-.12,3.24-.75,4.88-1a4.59,4.59,0,0,1,3.22.41c4.22,2.63.78,11.64-2.07,13.79-2.09,1.56-2.42,3.4-1.53,6.48a22.36,22.36,0,0,1-15.49,8.94c-6.75-8.24,5.92-10.82,7.59-15.85,1-3-1.47-6-4-7.81s-5.45-3.54-6.13-6.65,1.32-6.65.09-9.62c-.92-2.22-3.27-3.24-5.3-4.34s-4.18-3-4-5.38a14.17,14.17,0,0,0,.46-2.93,3.78,3.78,0,0,0-2.22-2.66c-3.57-1.92-7.8-1.59-11.77-1.07a13.61,13.61,0,0,0-5.66,1.63,5.61,5.61,0,0,0-2.77,5.15,8.93,8.93,0,0,1,.24,1.92c-.23,2.77-5,3.58-4.5,6.31a6.68,6.68,0,0,1,5.41,6.69,7.13,7.13,0,0,0,.12,2.77c.65,1.61,2.67,1.78,4.31,1.9a21.73,21.73,0,0,1,6.72,1.57,2.65,2.65,0,0,1,1.47,1.09,2.83,2.83,0,0,1-.41,2.68c-4.22,7.07-17,6.7-22.41,2s-8.46-8.3-17.6-7.57-11.18.36-9.82,4,3.38,3.61,2.37,6.49-3.73-.36-9.48-1.44-12.87-4-15.58,0-4.06,3.61-8.46,3.61-4.59-5-7.84-4-6,5.93-13.91,6.92c-7,.88-12.52,3-19.28,4.5-2.58.56-5.4.65-7.68-.74s-3.69-4.67-2.45-7.13c.71-1.41,1.91-2.46,2.63-3.83a10.55,10.55,0,0,0-10.39-2c-8.31,3.26,4.33,24-1.8,24-4.17,0-6.49-1-11.13,2.47s-12.52,4-8.81,7.9,12.06,7.42,1.39,5.93-7.42-6.42-12.06-7.41-11.59,4.45-9.27,5.44,13.45,7.9,7.42,6.91-14.85-4.94-16.24-8.89-3.33-10.08-5.1-11.86-5.76-1.32-7.89-3.14c.59-2.29,1.84-5.07,4.16-5.81s4.8,0,7.1.79c9.36,3.13,31.92,4.4,32.92-.88,2.12-11.15-21.15-10.94-27.11-11.58-13.92-1.48-13.35-5.56-13.35-5.56l-24.12-3v-6.92s-23.66.49-29.22-1.48a28.28,28.28,0,0,0-11.6-1.49c-2.32,0-4.17,6.43-11.13,6.92s-7.89,3.46-7.89,3.46-1,2.47-4-1-3.45-3.46-7.16.5-6.49,8.39-7.88,8.39-2.79-1.48-6.5,2-5.56,13.83-9.27,14.33-4.18,1.48-8.35,6.42-11.13,17.79-13.92,18.28,1.4-3-2.78.49-5.56,3-10.2,3.46-2.79,6.42-10.21,10.38-13,1.48-13,1.48a56.64,56.64,0,0,1-.84,10.62c-1,6.78,5.74,16.8,13.22,21.65a19,19,0,0,0,12.19-5.19c6.81-6,9.33-8.45,17.24-.9a25,25,0,0,1,7,12.68c2.1,9.47,3.3,11.21,9.52,16.9.38.35.87.72,1.34.55a1.39,1.39,0,0,0,.67-.77c1-2.17,1.2-4.92,2.94-6.49a8,8,0,0,1,4.14-1.57,6.92,6.92,0,0,0,4-1.76c1.82-2-.59-7.41-.52-10,.24-9,7.33-8.94,12.34-13.78,2.53-2.45,5-6.1,3-9.77-2.45-4.45-7.35-1.4-10.43-3.64-1.07-.78-1.4-2.28-1.52-3.65-.72-8.16,2.29-15.15,9.42-18.13,5.14-2.16,12.28-1.28,15.65-6.89,1.83-3,1.6-7,2.77-10.36a12,12,0,0,1,8.19-7.72c3.79-.94,12.44,1.58,13.89,6.22.55,1.75-.88,3.45-2.21,4.63-7.1,6.31-14.89,11.91-17.6,21.93-1,3.87-.75,8.38,1.69,11.46,2.2,2.76,5.71,3.92,8.73,5.32a7.7,7.7,0,0,0,5.14.61c7.11-1.83,11.1-7.27,19-5.28a133.32,133.32,0,0,1,22.13,8c-7.41,4.95-16.82,4.06-25.56,4.22s-18.77,2.48-22.84,10.72c2.49,1.94,5.9-.95,9-.58,2.85.34,4.79,3.92,3.93,6.83a6.07,6.07,0,0,1-6.85,4.11c-2.26-.45-4.29-2.16-6.59-2-4.71.36-5.57,7.13-6.55,12.05a24.27,24.27,0,0,1-13.25,17.24,2.5,2.5,0,0,1-2.4.18c-1-.7-.78-2.42-1.46-3.51-.84-1.32-2.68-1.21-4.15-.89a53.72,53.72,0,0,0-15.72,6.2c-3.08,1.82-6.73,4-9.89,2.35-2.89-1.52-3.93-5.67-6.86-7.09-4.91-2.38-9.12,3.54-13.94,2.79-5-.77-9.24-7.78-8.37-12.91.58-3.43,3.13-6.16,3.86-9.55,1.93-8.84-5.45-.5-8.4-1.29-5.09-1.37-6.3,8.25-4.86,13.75.8,3,2.2,5.94,2.37,9.09.15,2.77-.82,6.69-3,8.52-1.6,1.37-3.34-.22-4.64.65-2.91,2-3.88,5.24-7.87,5.43-4.32.2-5.18,1.76-6.78,2.83a31.42,31.42,0,0,0-8.29,8.21c-2.72,3.87-8.85,6.24-12.74,8s-5.23,5.28-6.61,7.92-2.2,4.4-6.33,4.4.27,3.52-5,3.81-6.06-.59-8.26-2.35-4.68,1.18-4.68,1.18l-.28,8.5-8.81-.88-9.63-2.05h0c-1.39-.11-3.06,2.41-4.44,2.38,3,1.43,6,3,9.15,4.19a39.53,39.53,0,0,1,5.58,2.36c10.26,5.83,13.82,13.88,12.78,21.24s-9,16.85-14.79,17.08c-4,.15-8,2.06-12.64,1.66s-9.18-1.76-13.83-1.94c-7.14-.27-18.23,3.85-17.9,13,.1,2.85-1,6.95-1.14,9.69s.89,4.1.23,6.91c-2.61,11.1-6.4,18.24-5.18,29.75a7.67,7.67,0,0,0,1.28,4.19c1.25,1.49,3.42,1.66,5.24,1.17s3.49-1.49,5.31-2c7.58-2,7.73,5.5,12.57,7.07C1062,488.53,1066.09,482.36,1071.61,482.2Z" transform="translate(-41.38 -79.5)"/><path class="cls-1" d="M1055.51,310.61c3.81-3.82,4-6.93,9.87-6.93s5.16,2.87,8.07,3.47,2.92,3.94,0,5.85a12.36,12.36,0,0,0-5.38,10c0,4.31.84,6-2.49,6.22s-9.4-3.35-11.19,0-3.37,10.27-7,8.6a7.86,7.86,0,0,1-4.71-6.93c-.23-2.39,4-1,4.48-4.06s-.22-5-.45-6.93-5.16-3.82-.89-6.45A22.8,22.8,0,0,1,1055.51,310.61Z" transform="translate(-41.38 -79.5)"/><path class="cls-1" d="M1082.93,303.68c3.46,2.27,9.22-.32,9,3.08s-3.72,1.7-2.65,4,6.64,1.42,5.31,5.1,1.06,6.22-3.72,6.22-8.91.42-11,4.34c-1.6,3,1.72,8.12,2.18,8.67s11,1,9.9,3.05-9.56,2.62-9.56,2.62a18.33,18.33,0,0,0-5.32,4.53c-2.12,2.83-3.18,4.25,1.6,4.25s7.17-4.53,11.69-4.53,27.69.26,30-.84,3.26-4.51,3.79-7.26-2.47-5.77-.88-6.34,1.06-1.41-1.86-4.67-7.44.15-7.44-3-2.39-6.22-2.39-6.22a4.55,4.55,0,0,0-.27-6.23C1108.36,307,1106,309,1106,309s-1.86-.2-1.86-5.34-7.18-6.54-6.11-10.51,5-6.22,5-6.22l-.53-7.08s-9.3,1.13-11.42,0,.53-5.38,4-5.94,6.91-1.7-3.19-2.27-11.76.6-11.76.6.87,4.78-1.79,4.78,1.33,4-.53,4.81-6.38,0-4.78,2.55,5.31,2.55,5.31,6.23-3.19,5.37-4,5.94,1.59-1.13,4.25,2.26A38,38,0,0,0,1082.93,303.68Z" transform="translate(-41.38 -79.5)"/><path class="cls-1" d="M1747.58,744.21c5.49,3.63,23,29,10.25,32.92-7.8,2.38-10.31,2.67-12.54-5-1.57-5.46,2.48-11.36,2.77-16.73C1748.09,754.9,1746,743.2,1747.58,744.21Z" transform="translate(-41.38 -79.5)"/><path class="cls-1" d="M699.44,363.14c5.73-7,10.6-16.47,15.18-20.13s6.3-2.44,7.73-1.83-8.88,6.93-5.44,10.63,4.86,4.92,11.74,4,5.72,1.83,5.44,2.74-2.87,4-2.87,4.58-1.43,2.74-1.71,5.49.57,4.26,3.43,4.87.57,3.66-.29,4.58,0,2.74-1.43,2.74-6.58.31-9.45-2.74-6.29-5.19-9.73-5.19-3.15,2.44-11.17,2.44-11.74-1.52-11.16-3.05S699.44,363.14,699.44,363.14Z" transform="translate(-41.38 -79.5)"/><path class="cls-1" d="M1043.94,89.91c-10.65,2.46-10.19-.2-19.12-5.2-9.28-5.21-23.6-3.26-34-3.5q-19.34-.45-38.67.06a779,779,0,0,0-81,6.41q-20.42,2.68-40.67,6.46-10.12,1.88-20.21,4c-2.6.55-7.35.6-9.55,2.18-4.76,3.42-3.49,6.8-9.66,7.81-10.14,1.66-22,5.44-32.17,2.92-.81-.2-1.84-.34-2.29.4a2.13,2.13,0,0,0-.15,1.3c.8,7.25,5,11.48,11.5,11.36,9.27-.16,18.54-.43,27.81-.67,5.69-.14,11.92-.09,16.3,3.77,4.15,3.65,5.51,10,4.8,15.67-.33,2.66-1.61,4.94-1.94,7.54-.48,3.7-3.76,7.27-2,10.25s16.47,4.64,18,7.54c-3.38.79-7.18.63-10.67.83-1.3.07-3,.55-3,1.94a2.75,2.75,0,0,0,.51,1.42c1.43,2.4,3.26,4.68,3.77,7.47,1,5.46-2.68,5.5-6.1,6.05-3.72.61-5.44,2.07-8.22,5.12-6.79,7.44-9.18,17.47-6.79,27.69.65,2.76,1.66,5.42,2.31,8.19,1.15,4.9.55,15.59,5,18.78,5.33,3.84,13.43-2.23,18.2,5,3.14,4.75,2.28,8.48,8.68,6.69,4.94-1.38,7.67-5.63,10.38-10,2.33-3.71,3.32-9.52,7.12-11.84,5.87-3.58,9.31-2.18,12.06-10.28,2.93-8.6,8.07-11.31,15.26-14.92,5.86-2.94,12.22-5,18.77-4.75,6.35.29,11.63,1.35,17.59-2.29,6.39-3.91,9.67-12.87,16.8-14.84,6.24-1.72,13.13-.08,19.93-1.75,5.73-1.4,11.62-.95,17.16-3.19,1.59-.64,16.76-9.72,16.76-9.72s-6-3.15-6.72-4.93c-.06-.14-1.34-5.48,0-4.43a20.9,20.9,0,0,0,17.25,3.73c1.16-.27-6.35-11.55-7.48-12.37-2.32-1.66-7.75-2-5.51-5.61,2.51-4.08,13-3.85,17.07-4.42,5.63-.8,12.59-1.4,15.66-7.34,2-3.81,1.44-8.46,2-12.77s3.13-9.19,7.21-9.08c-1.38-2-3.69-3.68-3.45-6.06.52-5.16,6.49-5.95,10-7.77,5.83-3,12-4.29,17.68-7.63,5.23-3.09,14-8,20.16-5.31C1061.65,86.16,1053,87.83,1043.94,89.91Z" transform="translate(-41.38 -79.5)"/><path class="cls-1" d="M612.67,226.18c1.13-.22,1.76-.85,1.6-2a22.37,22.37,0,0,0-4.87-11.3c-2.15-2.6-5.61-4.72-8.55-3.25a9.34,9.34,0,0,0-2.74,2.44l-10.43,12a8.59,8.59,0,0,0-2.42,4.26c-.23,1.66.94,3.64,2.51,3.47C591.29,230.33,612.67,226.18,612.67,226.18Z" transform="translate(-41.38 -79.5)"/><path class="cls-1" d="M991.64,210.11c-.87.45-1.48,1.57-2.45,1.58-1.74,0-1.52-2.86-2.21-4.57-.76-1.9-3.24-2.46-5-1.59a8.42,8.42,0,0,0-3.63,4.67c1.91,1.48,3.91,3.07,4.79,5.4s0,5.58-2.25,6.21c.28,2.32,2.55,3.8,4.71,4.17s4.38,0,6.55.32c4.59.68,9,4.48,13.38,3,3.68-1.21,5.53-5.48,8.42-8.19,4.15-3.89,10.15-4.28,15.67-4.49.91-1.84,2-6.32,2.19-6.61-5-3.37-13.42-1.56-19.2-.93C1007.8,209.61,995.12,208.33,991.64,210.11Z" transform="translate(-41.38 -79.5)"/><path class="cls-1" d="M475.45,143.22c-1.84.52-3.84,1.67-5.51.7-1.13-.65-1.66-2.08-2.67-2.92-2.35-2-9.22-1-12-.61-5.17.75-10.07,3.14-14.71,5.56-5.25,2.74-10.52,5.57-16.31,6.73-1.86.37-10.32.8-8.72,5.48,1.36,4,34.07,2.18,39.16,2.32,3.56,2.33,1.73,8.53-1.66,11.13s-7.62,3.58-10.58,6.81c4.44,1.29,9,2.86,13.53,4.3a41.38,41.38,0,0,0,8.07,2c4,.42,8.06-.37,12-1.16l13-2.56a36.82,36.82,0,0,1,10.11-1.06c5,.41,9.68,2.84,14.62,3.85,4.7,1,9.92-.39,14.44-1.87a16.22,16.22,0,0,0,5.34-2.7c1.4-1.11,3.08-4.9,4.26-5.49-2.72,1.37-6.26.08-7.88-2.62a8.77,8.77,0,0,1,.37-9c2-3,5.82-5.64,4.78-9.12-1-3.29-5.39-3.34-8.44-2.18a29.36,29.36,0,0,0-12.59,9.4c.07-5.34-6.46-7.75-11.43-7.07-5.88.81-11.16,3.09-16.14-1.09C482.56,148.69,483.63,140.9,475.45,143.22Z" transform="translate(-41.38 -79.5)"/><path class="cls-1" d="M634.49,161.57,664,146.38c3.43,1.07,5.59,5.3,9.08,7.46,2.39,1.48,5.38.72,8.12.29,13.81-2.17,27.18,5.29,39.39,12.5,3,1.76,6.35,4.28,6.14,7.88-.18,3-2.85,5.19-3.38,8.13-.91,5.1,4.71,8.6,9.46,9.78s10.55,2.55,12,7.5c1.39,4.73-2.42,9.48-6.57,11.72s-8.55,3.69-12.58,5.94c-5-5.13-1-13.65-10.92-14.2-3.42-.2-10.88,2.33-8.36,7.27.76,1.48,2.22,2.34,3.49,3.34,3.54,2.81,5.94,7.66,5,12.25s-6,8-10.07,6.11c-3.06-1.48-5.36-5.58-8.67-4.89-2.4.5-3.68,3.58-3.28,6.15s2,4.73,3.53,6.76c-9.9-1.07-21.35-3.19-26.09-12.51-1-1.93-1.61-4.1-3-5.75-6.21-7.55-19.92,2-26.76-4.92,4-2.91,13.14-2.29,20.27-2.18,8.55.12,16-5.86,22.65-11.56,3.16-2.7,6.65-6.17,6.22-10.46-.36-3.64-3.4-6.2-6.18-8.32L672,175.88a13.59,13.59,0,0,0-4.06-2.41,13.93,13.93,0,0,0-5.61-.12,129.86,129.86,0,0,1-43.84-2.64c-1.93-.45-4.11-1.18-4.85-3.12a6,6,0,0,1,.14-3.8c2.05-6.82,7.89-11.74,14.2-14.16,4.31-1.66,13.27-5.13,15.4.49C639.65,153.22,636.22,156.74,634.49,161.57Z" transform="translate(-41.38 -79.5)"/><path class="cls-1" d="M432.22,621.12c14.21-4,40.92-5.42,51,8.7,2.12,3,6,6.17,6.86,8.23s-1,3.14-.52,4.68a40.16,40.16,0,0,0,24.13-.84c-7.11-2.31-14.56-4.84-19.62-10.64a57.86,57.86,0,0,0-29.55-17.53,37.35,37.35,0,0,0-16-.05C442.68,614.81,438,619.48,432.22,621.12Z" transform="translate(-41.38 -79.5)"/><path class="cls-1" d="M526.59,645.19a5.29,5.29,0,0,0-2.88.89,2.2,2.2,0,0,0-.57,2.83,4,4,0,0,1,2.73,2.08c.51,2.1-1.9,3.56-3.85,4.16s-4.38,1.93-4,4.06a45.22,45.22,0,0,0-7.44.41c8.66,1.13,17.68,2.22,25.93-.79,2.82-1,5.62-2.55,8.59-2.39,2.35.12,4.53,1.28,6.84,1.69,2.48.45,4.54-.25,5.75-2.4C545.94,652.7,539.58,643.84,526.59,645.19Z" transform="translate(-41.38 -79.5)"/><path class="cls-1" d="M575.64,658.33c-2.41-.05-3,.06-5.45,0a3.8,3.8,0,0,0-1.92.29c-2,1-.75,4.75,1.44,5.06s4.14-1.54,5.3-3.54Z" transform="translate(-41.38 -79.5)"/><path class="cls-1" d="M1476.06,988a42.06,42.06,0,0,1-7.81,5c-9.46,4.32-18.26,6.6-16.31,19,1.82,11.62,5,17.52-5.26,27.89-2.28,2.31-5,4.41-6.11,7.45-1.84,5.06,1.41,10.59,1,16-.18,2.2-1,4.5-.14,6.54a10.25,10.25,0,0,0,2.28,3c4.38,4.69,6.63,10.65,10.08,15.83,1.22,1.82,11.47-4.28,12.79-5.63,4-4.07,4.1-9.09,5.87-14.12,5.5-15.6,12.51-29.94,14-46.71.32-3.55.43-7.17,1.57-10.55,2.12-6.27,7.49-10.9,10.32-16.87,3.54-7.45,2.3-27.83-5-33-2,2.34-2.52,5.11-3.08,8.25C1489.29,975.65,1482.55,983,1476.06,988Z" transform="translate(-41.38 -79.5)"/><path class="cls-1" d="M1997.68,1063.91c-7.34,5.51-12.18,8.5-8.85,19.78.88,3,2.41,5.94,2,9-.41,3.26-3.73,4.93-6.7,5,2.93,4.71,8.75,9,11,14.41,3.1,7.35.73,19.23,1.37,27.15,1,12.79-1,21.15-14.3,25.87,2-.71,4.64,24.28,20.13,18.78,9.54-3.39,13.09-16.41,23-19.6,6.1-2,11.26,2.19,17.12,3s6.51-1.77,10.65-4.66,9.14-3.88,13.89-5.5c6.11-2.1,8.13-3.73,14.37-3,6.61.74,12.46.82,17.9-4.08,5.68-5.12,7.82-5.39,15.11-4.12,7.49,1.31,15.11,3.74,20.75,9.16s8.78,14.4,5.86,21.87l28.4-20s-5.47,9.31-8.76,13.53c-2.56,3.3-7.86,6.94-9.06,11.06,3.29-.39,6.52-4.25,9.28-2.31s.16,4.16.67,6.25c.22,1-1.3,1.73-.82,3.07s3.41,1,3.58,1.69c1.29,4.61-3.67,6.38-3.72,12.25-.07,10,13.27,10.09,19.79,12.26,3.16,1,7.37,2.12,10.5.39,2-1.11,4.84-8.68,6.76-8.43,3.49.45,3.61,20.17,10.22,11.63s8-10.93,18.75-13.49c5.27-1.25,8.38-.69,11.6-4.6,4.8-5.82,7.14-12.23,12.3-17.86,6.94-7.57,11.31-17.39,18.55-24.87,6.1-6.29,13.35-11.32,18.74-18.3,6-7.74,9.26-17.4,11.64-27.09,3-12.16,4.57-25.64-.75-36.87-3.05-6.45-8.12-11.16-12.06-16.91-4.13-6-3.17-11-5.23-17.9-2.4-8-12-7.85-14.94-14.79-1.39-3.28-.57-10.18-.93-13.79q-.87-8.7-1.73-17.38c-.3-2.94-.63-6-2.17-8.45-3.35-5.32-9.26-5.27-11.88-11.72-1.68-4.15-.71-9.22-1.18-13.61-.55-5.2-.42-10.46-1.27-15.63,0,7.94-8,20.78-10.85,28.23-4.4,11.47-7.9,23.12-12.4,34.58a10.09,10.09,0,0,1-2.29,4c-5.34,4.89-18.39-10.91-22.66-14.13l-7.07-5.34c-1.86-1.41-3.79-2.89-4.85-5-2.27-4.61,2.23-10.57,4.26-14.39s5.4-11.21,9.92-11.81c-7.49-6.35-14.84-1.93-22.42-4.84-4.24-1.63-7.55-5.76-11-2.32-1.14,1.15,1.34,4.08-.37,5.72-2.05,2-4.55.67-6.78-.11-6.31-2.21-13.87.82-17.25,6.9-2.42,4.35-2.75,9.7-4.94,14.18s-7.9,7.91-11.58,4.74c-3.07-2.64,1.32-10.63-5.62-13-5.14-1.77-11.16,3.16-13.06,7.64-2.7,6.36-22.25,36.49-26.4,21.37-5.79,3.29-2.92,7.66-5.32,13.47-2.66,6.45-8.57,13.92-14.58,17-9.09,4.64-19.61,3.12-28.06,9.15-5.43,3.88-13,3.21-18.23,7.35-10.18,8-14.53,8.39-25.67,9.32a8.78,8.78,0,0,0,6.4,5.22Z" transform="translate(-41.38 -79.5)"/><path class="cls-1" d="M2176.92,1255.4a14.84,14.84,0,0,0,.6,1.51c4.34,9.28,12.88-.13,18.71-3.81,6.29-4,9.84-9.52,11-17.39-7.46,0-19.44-3.5-26.22,1C2176,1240.06,2175,1249.42,2176.92,1255.4Z" transform="translate(-41.38 -79.5)"/><path class="cls-1" d="M2395.18,1242.25c3.54.25-15,16.65-21.92,21.18-6.26,4.09-12.91,3.46-19.24,6.9-6.11,3.32-12,8.45-17.12,12.71-8.69,7.22-17.88,6.33-28.51,4.58a23.12,23.12,0,0,1,13.43-11.77c3.15-1,6.69-1.36,9.13-3.72,1.48-1.42,2.36-3.42,3.65-5.05,6.44-8.09,19.5-4,27.77-9.93,3.67-2.62,5.93-6.87,8.72-10.5a37.65,37.65,0,0,1,12.4-10.48,15.28,15.28,0,0,1,6.33-2C2390,1236.7,2391.64,1242,2395.18,1242.25Z" transform="translate(-41.38 -79.5)"/><path class="cls-1" d="M581.65,143c-3,.29-16.48-.89-17.24,2.91-.21,1,.32,2.09.21,3.14-.26,2.25-3,2.91-5.1,3s-4.85.79-5.08,3a26.74,26.74,0,0,0,5.79,5.75,8.33,8.33,0,0,0,7.6,1.12c2-.82,3.4-2.57,4.95-4.08a26.43,26.43,0,0,1,7.35-5.06,17.4,17.4,0,0,0,4.74-2.57c1.36-1.23,2.23-3.35,1.47-5.06S583.46,142.78,581.65,143Z" transform="translate(-41.38 -79.5)"/><path class="cls-1" d="M528.88,129.27c-1.79-2-3.58-2.78-5.86-4.14a8.19,8.19,0,0,0-7.52-.8c-1.66.77-2.93,2.26-4.51,3.19a7.87,7.87,0,0,1-5.64.93,3.16,3.16,0,0,0-2.36,0c-1,.62-.79,2.34.08,3.14a5.35,5.35,0,0,0,3.25,1l13.5,1.11c7.27.59,14.59,1.19,21.83.29,1.68-.2,3.36-.49,5-.78l9.47-1.64c-2.6-3-5.84-6.35-9.67-5.84-3,.4-5.29,3.11-8.12,4.29a11.5,11.5,0,0,1-9.11-.58" transform="translate(-41.38 -79.5)"/><path class="cls-1" d="M491.1,124.45c3.51-1.52,6.65-4,10.3-5.1,5.88-1.73,12.28.44,18.21-1.13-1.51-3.09-5.56-3.2-8.81-2.87-7.75.77-14.16,2.84-21.5,5.16-4.83,1.52-10.53.71-14.83,3.69A19.84,19.84,0,0,0,491.1,124.45Z" transform="translate(-41.38 -79.5)"/><path class="cls-1" d="M658,99.24a10.9,10.9,0,0,0-3.74.42,3.36,3.36,0,0,0-2.27,2.91,4.08,4.08,0,0,0,1.34,2.72c3.32,3.37,8.5,3.65,13,2.6s8.69-3.19,13.21-4c4.24-.76,8.57-.32,12.87-.29.76,0,1.76-.23,1.81-1a1.44,1.44,0,0,0-.28-.84C686.27,89.1,667.72,99.07,658,99.24Z" transform="translate(-41.38 -79.5)"/><path class="cls-1" d="M691.24,113c-6.44,1.7-13.16,1.82-19.66,3.21A104.08,104.08,0,0,0,655,121.78l26.42-.93c3.93-.14,9-1.26,12.88-.3,3.55.89,6.59,2.3,10.4,2.44a6.29,6.29,0,0,0,2.69-.34c3-1.28,2.59-5.27,5.65-6.69,3.6-1.67,7.68-2.26,11.56-2.73,7.5-.9,15.31-2.91,20.78-8.46,1.38-1.41,1.9-3.66,3.61-4.37,2.3-1,6,.53,8.32.83a22.84,22.84,0,0,0,11.57-1.62c3.61-1.49,7.54-1.58,11.41-2.1,4.08-.55,8.28-1.14,11.84-3.31,1.89-1.15,3.3-2.77,5.32-3.49,2.74-1,5.81-1.43,8.63-2.21,5.89-1.61,11.75-3.32,17.62-5-2.61-2.36-5.41-.74-8.21-.18-3.43.69-7.7-.38-11.18-.66a45.31,45.31,0,0,0-6.38-.21c-2.38.14-4.72.65-7.09.91-10.18,1.13-20.5-2.34-30.63-.8-3.05.47-6.58-.88-9.7-1.08a56.72,56.72,0,0,0-10.42.32,89.69,89.69,0,0,0-19.59,5,16.45,16.45,0,0,1-4.48.72l-25.78,1.68c2,3,5.88,3.9,9.36,4.47,5.21.86,11,.78,16.06,2.45-.71.92-1.44,2.09-2.54,2.48a4.71,4.71,0,0,1-2.3,0l-3.95-.6a2.55,2.55,0,0,0-2.29.4A2.89,2.89,0,0,0,704,100c-.61,4-.88,6.29-4,8.92A20.87,20.87,0,0,1,691.24,113Z" transform="translate(-41.38 -79.5)"/><path class="cls-1" d="M626.53,111.58c1,1.85,3,2.68,4.93,3.26a13.77,13.77,0,0,0,4.15.77,5.75,5.75,0,0,0,3.91-1.45,1,1,0,0,0,.14-1.52c-1.22-1.51-3.33-1.68-5.2-1.63C633.32,111,625,108.67,626.53,111.58Z" transform="translate(-41.38 -79.5)"/><path class="cls-1" d="M607,106.55a3.5,3.5,0,0,1-2.43-1.83,15.69,15.69,0,0,0-.83-2.17,2.61,2.61,0,0,0-3-.83,7.7,7.7,0,0,0-2.73,1.9,5.19,5.19,0,0,0-1.23,1.49,3.64,3.64,0,0,0,.49,3.55,6.65,6.65,0,0,0,2.92,2.07c4.16,1.7,8.78,1.25,13.2.77,1.09-.12,2.43-.47,2.65-1.61a2,2,0,0,0-1.4-2.07,7.55,7.55,0,0,0-2.6-.14,10.77,10.77,0,0,1-5-1.16" transform="translate(-41.38 -79.5)"/><path class="cls-1" d="M619.64,126.41a4.32,4.32,0,0,0,4-.31c1-.63,4.61-2.9,5-3.87.91-2.13-2.88-4.12-4.45-4.33C620,117.34,613.47,123.66,619.64,126.41Z" transform="translate(-41.38 -79.5)"/><path class="cls-1" d="M642.62,124.58c-5,.14-8.74,4.62-11.86,8.75a19,19,0,0,0-1.31,1.87q15.4.2,30.79.93a10.44,10.44,0,0,1,3.68.63c1,.43,1.86,1.17,2.84,1.67a6.74,6.74,0,0,0,4.54.57,22.64,22.64,0,0,0,4.22-1.81,16.61,16.61,0,0,1,11.61-.79l2.45-5.34a1.29,1.29,0,0,0,.17-.83,1.12,1.12,0,0,0-.63-.63c-2.46-1.28-5.32-1.2-8-1.09q-11.45.48-22.89,1.11c-2.45.14-7.37,1.5-9.36-.25C646.52,127.35,646.47,124.47,642.62,124.58Z" transform="translate(-41.38 -79.5)"/><path class="cls-1" d="M681.38,145.52a4.47,4.47,0,0,0,1.29,3.46,7.41,7.41,0,0,0,3.05,2.44,2,2,0,0,0,1,.14,3.58,3.58,0,0,0,1.62-1.14,7.84,7.84,0,0,1,4.3-1.8c1.55-.21,3.12-.15,4.68-.25a.86.86,0,0,0,.63-.22.68.68,0,0,0-.06-.87,1.66,1.66,0,0,0-.79-.43c-3.26-.93-6.92.58-9.65-1.91C685.81,143.47,682,142,681.38,145.52Z" transform="translate(-41.38 -79.5)"/><path class="cls-1" d="M1883.05,785c-3.34-1.54-7.56-1.55-10.31,1a146.68,146.68,0,0,1,14.47,22.79c1.28,2.49,2.6,5.14,4.89,6.57,1.54,1,3.37,1.27,4.91,2.22,5.81,3.6,4.2,13.24,8,19.12,2,3.15,5.5,5,7.71,8,4,5.48,3.25,13.81,7.49,19.1,1.49,1.85,3.49,3.17,5.15,4.85,2.31,2.34,3.91,5.33,5.67,8.15a68.21,68.21,0,0,0,17.4,18.79c8.09-9.66,9-25.29,2.15-36-2.82-4.38-6.93-8.38-7.19-13.69-1,2.43-4.84.91-5.6-1.62s0-5.33-.41-8c-.68-4.08-4.11-6.89-7.28-9.29-9-6.79-18.82-13-26.54-21.41C1897.39,798.9,1891.54,788.64,1883.05,785Z" transform="translate(-41.38 -79.5)"/><path class="cls-1" d="M2061,596.22c1.36-1.84-1.22-4.61-3.33-3.94s-3.21,3.12-3.72,5.4-.72,4.76-2.07,6.61c-1.19,1.64-3.29,3-3.14,5a5.24,5.24,0,0,0,1.15,2.51l6.48,9.15c2.45-2,2.78-5.7,2.89-9l.57-16.65" transform="translate(-41.38 -79.5)"/><path class="cls-1" d="M1976.1,655.75c-4.42.55-8.39-4.24-7-8.62s8.28-5.4,10.69-3.32S1980.52,655.19,1976.1,655.75Z" transform="translate(-41.38 -79.5)"/><path class="cls-1" d="M2022.59,794.59c-.38.33-.76.68-1.12,1-4,4.17-4.57,10.89-10.58,13.1-2.84,1-6.31.65-8.44,2.89-3.13,3.27-1.93,10.67-6.22,11.63-1.42-4.23-7.75-4-10.41-.54s-2.59,8.46-2.11,12.93a109.06,109.06,0,0,0,2.39,13.82l3.08,1a20,20,0,0,0,7.12,16.36,15.68,15.68,0,0,0,12.91,3.28c6.47-1.4,12-4.19,17.52,1.57,2,2,4.17,4.56,6.9,4.19,11.22-1.49,5.22-24.58,12.55-31.63,1.39-1.34,3-2.5,3.83-4.32.71-1.66.56-3.57.94-5.34.92-4.25,5.28-7.29,9.3-6.49a66.62,66.62,0,0,1-8-18.47c-.84-3.18-1.45-6.57-.59-9.74s3.6-6,6.69-5.73l-1.14-4.34c2.41-.55,5.44-1.9,5.25-4.52-.27-3.87-5.75-3.17-7.79-5.15-2.9-2.81-3.17-7.8-7.95-7.6s-9.27,9.32-12.08,12.94C2031.12,790,2026.42,791.27,2022.59,794.59Z" transform="translate(-41.38 -79.5)"/><path class="cls-1" d="M2190.22,869.17c2.45,1.54,4.85-1.91,6.42-4.44,4.18-6.7,12.2-9.73,19.75-9.64s14.82,2.85,21.93,5.57c8.09,3.09,16.3,6.24,23.33,11.51,11.42,8.53,19,22.08,31,29.72-4.35.31-6.68,6.22-5.38,10.64s4.93,7.56,8.36,10.41l10.13,8.42c2.94,2.45,6.23,6.18,4.71,9.82-8.27-2.14-17.13-4.66-22.58-11.61-1.91-2.44-3.29-5.29-5-7.91a37.51,37.51,0,0,0-8.61-9.44,10.09,10.09,0,0,0-4.95-2.39c-6.18-.63-9,7.76-13.42,12.43a13.83,13.83,0,0,1-16.28,2.81c-4.19-2.23-7.18-6.57-11.47-8.56a12.44,12.44,0,0,0-13.78,2.56c-2-2.38,2.42-4.64,4.79-6.63,4.54-3.82,1.1-11.6-3-16a81.73,81.73,0,0,0-30.63-20.86c-1.72-.66-3.61-1.26-5.33-.63-2,.73-3.37,3-5.45,3.53a14.68,14.68,0,0,1-2.62-10.28c2.15-.22,4.43-.61,6.09-2.09s2.38-4.41.92-6.12a6.23,6.23,0,0,0-2.15-1.43l-21.45-10.14c5-.49,9.12-4.58,14-5.72,9-2.09,14.81,15.58,15.26,18.07S2189.46,868.69,2190.22,869.17Z" transform="translate(-41.38 -79.5)"/><path class="cls-1" d="M2420.33,1054.74a2,2,0,0,1-2.1,1.74,5.34,5.34,0,0,1-2.7-1.14c-5.34-3.63-10.51-9.27-10-16,3.76,3.34,10.56,8.25,11.6,9.57S2417.45,1052.49,2420.33,1054.74Z" transform="translate(-41.38 -79.5)"/><path class="cls-1" d="M2521.55,1010.14a5.11,5.11,0,0,0-5.89.34c-1.6,1.42-1.94,4.35-.43,5.88a4.32,4.32,0,0,0,2.32,1.14,5.11,5.11,0,0,0,5.67-2.75c.9-2.19-.73-5.26-3-5" transform="translate(-41.38 -79.5)"/><path class="cls-1" d="M2533.32,998c-1.15,0-7.24,4.31-7.08,5.44,1.87,3.84,7.53-.67,8.09-4.29A1,1,0,0,0,2533.32,998Z" transform="translate(-41.38 -79.5)"/><path class="cls-1" d="M2097.14,336.65c7.77,8.91,13.17,19.82,18.48,30.58l6,12.08c2.56,5.18,5.28,10.57,9.79,13.91-1-2.75,1.91-6.09,4.55-5.19a107.85,107.85,0,0,1-11.74-14.77c-1.47-2.22-2.92-4.74-2.66-7.44s5.37-3.78,5.37-3.78-7.87-7-11.32-11.12c-9.31-11-18.24-22.3-28.95-31.68C2087.08,325.21,2092.34,333.46,2097.14,336.65Z" transform="translate(-41.38 -79.5)"/><path class="cls-1" d="M2141.9,412.19a10.47,10.47,0,0,1,1.13,4,3.47,3.47,0,0,1-1.89,3.34c-1.61.58-3.65-.72-5,.41s-.49,3.48.47,5a35.31,35.31,0,0,0,5.85,7.79c.78.7,2,1.31,2.71.52.95-1-.48-2.56-1-3.92-.67-1.95,1-4.1,2.89-4.55s3.85.32,5.63,1.17a59,59,0,0,1,9.67,5.77c1.11-3.23.07-7.9,3-9.35,1.59-.79,4-.32,4.66-2.08a3.62,3.62,0,0,0-.54-2.7c-1.24-2.49-1.72-6-3.73-7.47s-14.21-1.44-16.28-2.68c-4.62-2.77-8.07-7-13.32-8.66C2137.85,403.32,2140,407.75,2141.9,412.19Z" transform="translate(-41.38 -79.5)"/><path class="cls-1" d="M2151,472.05c-.61,2.44-1.53,4.93-3.35,6.56s-4.75,2.06-6.52.37c-3,4.5.89,12.42-3.42,15.43-2.1,1.46-4.85.62-7.32.15-8.48-1.61-17.68,2.29-22.8,9.67,1.63,2.44,5,2.78,7.69,1.93s5.07-2.61,7.72-3.61a15.47,15.47,0,0,1,17.53,5.38c1,1.33,2.15,3,3.72,2.75,2.68-.46,1.71-4.82,2.55-7.56s4.17-4,7-4,5.72.9,8.49.22c6.62-1.63,11.08-10.82,8.56-17.13-4.2-10.52-5-21.86-9.56-32-.76-1.57-2.33-12.31-6.07-12.24-2.39,0-3.69-1.31-6.14,1a2.39,2.39,0,0,0-.57,1.4c-.58,4.18,1.55,9.48,2.51,13.48A39.14,39.14,0,0,1,2151,472.05Z" transform="translate(-41.38 -79.5)"/><path class="cls-1" d="M2116.69,522.42c-.25,2.77.65,5.59.22,8.34s-3.31,5.42-5.52,3.92c-2.52-1.71-1-6.28-2.88-8.77s-6.19-1.9-7.23-4.82c-.64-1.81.53-3.74,1.64-5.28.7-1,1.55-2.06,2.71-2.15a3.92,3.92,0,0,1,1.95.53l8.44,3.94Z" transform="translate(-41.38 -79.5)"/><path class="cls-1" d="M2133.38,510.16a2.93,2.93,0,0,1-.86,1.62c-2.71,3.14-6,6.55-10,6.33a9.22,9.22,0,0,1,2.05-8.33c2-2.15,6.41-3,7.78-2.35S2133.38,510.16,2133.38,510.16Z" transform="translate(-41.38 -79.5)"/><path class="cls-1" d="M2064.75,659.06c-1.78.24-3.84,1.25-4,3.15a6.18,6.18,0,0,0,.94,3,18.37,18.37,0,0,1-.58,16.69,15.28,15.28,0,0,0-1.77,3.43c-.67,2.32.21,4.82,1.37,6.9a23.5,23.5,0,0,0,11.07,10.13,3.85,3.85,0,0,0,3.18.3c1.84-.91,1.61-3.88.44-5.65s-3-3.1-3.66-5.13c-1.78-5.31,5-9.84,5.12-15.47a13.84,13.84,0,0,0-.81-4.21C2073.83,665,2073.53,657.89,2064.75,659.06Z" transform="translate(-41.38 -79.5)"/><path class="cls-1" d="M2086.36,766.56a2.42,2.42,0,0,0,0,2c.6.95,2.06.61,2.83-.2s1.22-1.94,2.09-2.63c2.22-1.75,5.38.47,6.72,3l2.41-1.4c1.63,2.39,1.17,5.66,1.65,8.57a12.15,12.15,0,0,0,5,8c2.12,1.44,5.4,1.82,6.77-.42,1.8-2.92-1.34-7.33.58-10.16.65-1,1.75-1.48,2.38-2.45a5.8,5.8,0,0,0,.73-2.53c.56-4.8.15-13.41-3.21-17.2-4.92-5.53-4.44,1-8.27,5.15C2099.92,763,2090.42,755.25,2086.36,766.56Z" transform="translate(-41.38 -79.5)"/><path class="cls-1" d="M2074.91,837.32c-1.43.58-2.95,1.37-3.56,2.87s0,3.5.73,5.07a27.93,27.93,0,0,0,5.23,7.4c.78.79,1.94,1.57,2.85,1s.83-1.73,1.29-2.6c.72-1.38,2.39-1.75,3.86-2l11.13-1.73c0,3-3,4.94-5.73,5.88s-5.87,1.89-7,4.67c-1,2.47.06,5.29,1.15,7.71q3.95,8.77,8.48,17.22c-2.51,1.25-5.11,2.52-7.88,2.63s-5.79-1.24-6.89-3.95c-.73-1.81-.51-3.87-.39-5.83s.09-4.1-1-5.67-3.69-2-4.72-.4c-.87,1.37-.21,3.19.29,4.76,2.57,8-.1,17.53-6.35,22.7l.64-14.28c.1-2.24,0-4.92-1.76-6.13-.91-.62-2-.68-3-1.22-2.41-1.36-2.55-5.12-1.39-7.76s3.19-4.75,4.28-7.42c1.64-4,.86-8.64.58-13s.25-9.4,3.53-12.07c4-3.21,7.18-5.75,11-6.62a15,15,0,0,1,7.81.47c1.84.56,2.51,2.62,4,2.82s3.87-1.44,5.84-2c1.47-.4,8.91-5.45,10.34-6.1C2108.47,841.64,2084.61,833.35,2074.91,837.32Z" transform="translate(-41.38 -79.5)"/><path class="cls-1" d="M2073.52,714.29c0,1.43.93,2.66,1.24,4.05s-.49,3.3-1.81,3a2.63,2.63,0,0,1-1.45-1.29,72.56,72.56,0,0,1-4.94-8.62c-.73-1.49-1.26-3.65.06-4.58.87-.6,2-.22,3,.27a16.79,16.79,0,0,1,5.62,4.9Z" transform="translate(-41.38 -79.5)"/><path class="cls-1" d="M2097.33,711.41c-2.4-6.52-10.42-11.29-16.74-9.35.12,2.33,2.95,3,5.1,3.49C2089.08,706.29,2097.33,711.41,2097.33,711.41Z" transform="translate(-41.38 -79.5)"/><path class="cls-1" d="M2108.49,728.24a22.77,22.77,0,0,0-1.71-7.71c-1.16-2.36-3.39-4.31-5.88-4.24-1.27,0-2.74,1-2.58,2.32a3.25,3.25,0,0,0,.61,1.35,134.58,134.58,0,0,0,8.35,11.31l1.75,1.62Z" transform="translate(-41.38 -79.5)"/><path class="cls-1" d="M2093.47,748.56a18.37,18.37,0,0,0,3.57-14.51c-.19-1-.88-2.31-1.82-2a1.9,1.9,0,0,0-.9.93q-3,5-5.76,10.27c-.79,1.51-.15,2.83.56,4.29.49,1,3.3,2.7,4.35,1" transform="translate(-41.38 -79.5)"/><path class="cls-1" d="M2085.77,728.09c1.06-1.24-1-3.22-2.39-2.53s-1.9,2.6-2,4.26a24.44,24.44,0,0,0,1,9.12,11.2,11.2,0,0,0,2.36-13" transform="translate(-41.38 -79.5)"/><path class="cls-1" d="M2106.39,743.35a12.8,12.8,0,0,1-5.59-12.88C2103.69,730.91,2106.89,739.15,2106.39,743.35Z" transform="translate(-41.38 -79.5)"/><path class="cls-1" d="M1962.49,900.73a8.26,8.26,0,0,0-4.74,2.27,4.79,4.79,0,0,0-1,5.15,6,6,0,0,0,2.4,2.31A23.87,23.87,0,0,0,1974,914a56.44,56.44,0,0,1,6.45-.68c5.73.09,10.28,4.13,15.57,5.51s9.65,5.19,15,6.31c4.31.9,8.75-.08,13-1.05,3-.69,6.28-1.5,8.36-3.95a1.93,1.93,0,0,0,.46-.84,1.42,1.42,0,0,0-1.09-1.51,4.06,4.06,0,0,0-2,.13,24.8,24.8,0,0,1-15-1.4c-2.85-1.24-5.74-5.22-.84-5.07a3.33,3.33,0,0,0,3.06-3.87c-4.84-2.2-10.74.74-15.56-1.51-3.06-1.42-5.93-4.87-9-3.59a10.54,10.54,0,0,0-2.85,2.34C1979.91,913.83,1972.83,899,1962.49,900.73Z" transform="translate(-41.38 -79.5)"/><path class="cls-1" d="M2035.7,921.7a4.09,4.09,0,0,0,0,4.7,2.8,2.8,0,0,0,1.29,1.15c2.54.94,4.43-3.46,4-5.6C2040.46,919.15,2037.18,920,2035.7,921.7Z" transform="translate(-41.38 -79.5)"/><path class="cls-1" d="M2043.11,926.15a2,2,0,0,0-.69,1.12,1.31,1.31,0,0,0,.78,1.24,3.18,3.18,0,0,0,1.47.22,32.92,32.92,0,0,0,5.86-.62,2.43,2.43,0,0,0,1.57-.79,2.31,2.31,0,0,0,0-2.17C2049.75,919.52,2045.84,923.46,2043.11,926.15Z" transform="translate(-41.38 -79.5)"/><path class="cls-1" d="M2059.41,918.47a2.8,2.8,0,0,1,1.58,2.83,5.91,5.91,0,0,1-1.4,3.15,2.72,2.72,0,0,1-1.17,1,2.87,2.87,0,0,1-2-.28,7,7,0,0,1-2.57-1.47,2.71,2.71,0,0,1-.7-2.84,3.09,3.09,0,0,1,1.92-1.52A32.59,32.59,0,0,1,2059.41,918.47Z" transform="translate(-41.38 -79.5)"/><path class="cls-1" d="M2066.46,923a.42.42,0,0,0-.36.08.47.47,0,0,0-.11.31,3.66,3.66,0,0,0,2.12,3.42,7.47,7.47,0,0,0,4,.49c2.17-.2,4.29-.72,6.44-1s4.24.34,6.2.09,1.58-.69,0-1.64a14.24,14.24,0,0,0-7.15-1.7A100.83,100.83,0,0,1,2066.46,923Z" transform="translate(-41.38 -79.5)"/><path class="cls-1" d="M2063.41,929.76c-1.31-.39-2.6.56-3.67,1.45-.44.37-.94.87-.81,1.46s.7.78,1.2,1a28.57,28.57,0,0,1,9.78,5.69,2.66,2.66,0,0,0,1.58.88c.9,0,1.56-.92,1.8-1.84a5.52,5.52,0,0,0-.65-4.35c-1.18-1.86-2.55-2-4.37-2.15C2066,931.66,2065.43,930.36,2063.41,929.76Z" transform="translate(-41.38 -79.5)"/><path class="cls-1" d="M2109.77,923.56c-.89,1.06-1.67,2.25-2.47,3.09-4,4.22-12.24,3.1-11.81,10.85a5.68,5.68,0,0,0,.39,2.1c2.23,4.7,6.8-3.64,7.83-5a18.12,18.12,0,0,1,8-6.21c1.21-.42,2.5-.25,3.66-.61s2.36-1.3,3.6-1.75c.72-.26,3.39-.4,3.82-.89,1.49-1.69-2.25-2.65-3.55-2.65a9.9,9.9,0,0,1-3.3-.29c-.57-.2-1.15-1-1.69-1.08C2112.41,920.85,2111,922.08,2109.77,923.56Z" transform="translate(-41.38 -79.5)"/><path class="cls-1" d="M2094.08,890.34a1.62,1.62,0,0,1-.75,1.85,1.84,1.84,0,0,1-.84.06c-1.64-.15-3.49-.41-4.44-1.84a1.73,1.73,0,0,1-.29-.73,2.21,2.21,0,0,1,.58-1.41,6.67,6.67,0,0,1,2.06-2.07,2.1,2.1,0,0,1,2.63.37S2093.93,889.62,2094.08,890.34Z" transform="translate(-41.38 -79.5)"/><path class="cls-1" d="M2111.89,856.76a8.8,8.8,0,0,0-1.09-.75,3,3,0,0,0-2.79.37,1,1,0,0,0-.43.41c-.22.5.31,1,.78,1.25a17.77,17.77,0,0,0,4.06,1.57c1.07.26,2.27.5,2.9,1.45a10.92,10.92,0,0,1,.63,1.39,2.82,2.82,0,0,0,2.94,1.8c2.25-.48,4.83-6.77,2.24-7.85-1.42-.6-2.72.51-3.92,1A5.4,5.4,0,0,1,2111.89,856.76Z" transform="translate(-41.38 -79.5)"/><path class="cls-1" d="M2119.11,873a1.75,1.75,0,0,0-.54,1.06c0,.66.66,1.06,1.23,1.32l3.49,1.58a13.52,13.52,0,0,0,4.62,1.45c4.37.24,8.07-5.25,3.2-7.68A9.62,9.62,0,0,0,2119.11,873Z" transform="translate(-41.38 -79.5)"/><path class="cls-1" d="M2136.16,823.44a2.09,2.09,0,0,0,.05,1.46c.43.83,1.56.81,2.39.47a5.14,5.14,0,0,1,2.51-.77,2.52,2.52,0,0,1,1.84,2.51,5.82,5.82,0,0,1-1.1,3.2,5.69,5.69,0,0,1-3.38,2.8c-.66.12-1.35,0-2,.2-1.72.43-2.65,2.37-4,3.6a1.61,1.61,0,0,1-.75.44c-.65.1-1.18-.56-1.48-1.18-1.38-2.83-1.17-6.25-.46-9.34a10.3,10.3,0,0,1,1.88-4.36c1.31-1.56,3.36-2.35,4.44-4.11a21.11,21.11,0,0,0,1.26-3.36,3.47,3.47,0,0,1,2.35-2.38,2.69,2.69,0,0,1,2.73,2.26C2143.61,820,2137.25,819.13,2136.16,823.44Z" transform="translate(-41.38 -79.5)"/><path class="cls-1" d="M2136.9,846a2.22,2.22,0,0,1-.21,2.76,4.45,4.45,0,0,1-2.57,1.24,6.67,6.67,0,0,1-4.32-.41,3.91,3.91,0,0,1-2.14-3.76,3.82,3.82,0,0,1,2-2.77,6.91,6.91,0,0,1,3.32-.72,6.42,6.42,0,0,1,2.5,2Z" transform="translate(-41.38 -79.5)"/><path class="cls-1" d="M2136,854.68c.61.56.88,1.75.2,2.21a7.41,7.41,0,0,1-3.31-.11,3,3,0,0,1-1.75-2,2.23,2.23,0,0,1,.93-2.43C2132.81,851.92,2136,854.68,2136,854.68Z" transform="translate(-41.38 -79.5)"/><path class="cls-1" d="M2139.34,867.44a3.52,3.52,0,0,0-1.93.22c-1.36.72-1.35,3-.29,4.15a5.56,5.56,0,0,0,4.21,1.45c3.12,0,6.48-.79,9.2.84a25.59,25.59,0,0,0,2.89,1.94,2.25,2.25,0,0,0,3-.85,3,3,0,0,0-.48-2.62C2152.44,866.7,2145,867.82,2139.34,867.44Z" transform="translate(-41.38 -79.5)"/><path class="cls-1" d="M2153.92,857.86a2.78,2.78,0,0,1-3,2.5,2.08,2.08,0,0,1-1.37-2.72c.59-1.27,3.2-1.12,3.58-.88A2,2,0,0,1,2153.92,857.86Z" transform="translate(-41.38 -79.5)"/><path class="cls-1" d="M2157.64,841.17a1.35,1.35,0,0,0-1-.86,4,4,0,0,0,.26,4.85,4.89,4.89,0,0,0,.25-4.45" transform="translate(-41.38 -79.5)"/><path class="cls-1" d="M2422.08,1203.51c1.12,7.68-4.95,15.65-12.23,16.07-1.38.08-3,0-3.86,1.12s-.46,3.26.52,4.56,2.31,2.32,3,3.81c3,6.46-8.35,12.84-5.8,19.5a56.44,56.44,0,0,0,21.26-21.94c1.08-2,2.09-4.11,3.75-5.59,2.88-2.59,7-2.69,10.72-3.22s8-2.1,9.18-5.9a4.36,4.36,0,0,0-.92-4.55c-3.4-2.88-9.57,3.91-12.15.18a10.24,10.24,0,0,1-1-3.31c-.86-3.25-4.62-5.23-7.57-4-1.4-4.42,3-8.18,5.76-11.77.85-1.1,1.61-2.6,1-3.88a4.07,4.07,0,0,0-1.59-1.57l-8.58-5.74c-2.9,7-1.6,14.93-1.49,22.53s-1.82,16.39-8.26,19.68" transform="translate(-41.38 -79.5)"/><path class="cls-1" d="M2314.41,894.42a24.6,24.6,0,0,1-15.15-.45c1.11,4.49,6,6.69,10.33,7a19.33,19.33,0,0,0,10.87-2.28,15.57,15.57,0,0,0,7.22-8.78,9.64,9.64,0,0,0,.14-6c-2.28.64-3.84,4.45-5.77,6.21A20.56,20.56,0,0,1,2314.41,894.42Z" transform="translate(-41.38 -79.5)"/><path class="cls-1" d="M2333.9,883.06c.19.79.61,1.8,1.36,1.67a13.66,13.66,0,0,0-2.11-8.64,25.39,25.39,0,0,0-6-6.45,9.24,9.24,0,0,0-3.83-2.11A2.74,2.74,0,0,0,2320,869C2326.42,871.69,2332,875.41,2333.9,883.06Z" transform="translate(-41.38 -79.5)"/><path class="cls-1" d="M2357.08,900.06l-6.43-8.2c-.64-.82-1.51-1.72-2.47-1.44,0,5.41,3.16,10.18,6.15,14.56.72,1.06,1.77,2.26,3,1.91s1.51-1.82,1.35-3c-.27-2.05-1.54-3.77-2.77-5.37" transform="translate(-41.38 -79.5)"/><path class="cls-1" d="M2367.45,905.83l-2.78-.94c-.72,1.09.33,2.5,1.29,3.35.69.62,2,1.09,2.29.18a1.48,1.48,0,0,0-.09-.9,6.19,6.19,0,0,0-2.3-3" transform="translate(-41.38 -79.5)"/><path class="cls-1" d="M2364.71,915.51c-.13-.49-.84-.53-1.18-.17a2.25,2.25,0,0,0-.46,1.41c-.14,1.33.1,3.16,1.35,3.26.89.07,1.57-1,1.5-2a5.3,5.3,0,0,0-1.18-2.54" transform="translate(-41.38 -79.5)"/><path class="cls-1" d="M2382.8,914.17a12.52,12.52,0,0,1,5.9,7.92,32.54,32.54,0,0,1-9-6.09,2.4,2.4,0,0,1-.89-1.44,1.6,1.6,0,0,1,1.72-1.57,4,4,0,0,1,2.25,1.18" transform="translate(-41.38 -79.5)"/><path class="cls-1" d="M2390.52,931.37c-.47-1.23-2.41-.89-2.94.31a4.5,4.5,0,0,0,.55,3.78c.77,1.43,1.91,2.81,3.44,3s3.26-1.34,2.76-2.89c-.32-1-1.29-1.5-2.08-2.1s-1.52-1.67-1.09-2.6" transform="translate(-41.38 -79.5)"/><path class="cls-1" d="M2395.87,923.24a18.45,18.45,0,0,1,3.8,10.66,9.61,9.61,0,0,1-4.42-10.2,2.68,2.68,0,0,1,2.66,1.64" transform="translate(-41.38 -79.5)"/><path class="cls-1" d="M2403.6,942c0-.79-1.15-.92-1.73-.43a2.37,2.37,0,0,0,.45,3.66,2.15,2.15,0,0,0,2.87-2c-.06-1.82-2-2.74-3.69-3.23" transform="translate(-41.38 -79.5)"/><path class="cls-1" d="M2376.42,925.32c-.53.41-5.91-4-6.92-7.45a5.46,5.46,0,0,1,4.76,2.8S2377,924.92,2376.42,925.32Z" transform="translate(-41.38 -79.5)"/><path class="cls-1" d="M2186.74,896.41c1.63,4.28-1.21,9.78-5.47,10.61.75-4.07,2.86-11.61,4.09-11.61A1.27,1.27,0,0,1,2186.74,896.41Z" transform="translate(-41.38 -79.5)"/><path class="cls-1" d="M2151.54,949c-1.63-.67-3.52,1.33-3.09,3.13a3,3,0,0,0,4.24,1.84,4.25,4.25,0,0,0,1.69-4.82l-3.46-1.41" transform="translate(-41.38 -79.5)"/><path class="cls-1" d="M2159.43,914.4c1.3.48,2.74-.61,3.25-2s1.82-3.41.17-4.35S2158.93,912,2159.43,914.4Z" transform="translate(-41.38 -79.5)"/><path class="cls-1" d="M2174.27,404c1.4.82,1.87,4.06,0,4.65s-3.63-2.35-2.34-3.89C2171.94,404.72,2172.87,403.14,2174.27,404Z" transform="translate(-41.38 -79.5)"/><path class="cls-1" d="M2180.9,396.21a4.89,4.89,0,0,0-3.52,5.07,1.59,1.59,0,0,0,.36,1c.55.56,1.45.15,2.06-.33a5.27,5.27,0,0,0,2.08-2.87c.25-1.21-.39-2.69-1.54-2.88" transform="translate(-41.38 -79.5)"/><path class="cls-1" d="M2189.85,389.28c-1,1.18-1.1,3.45,1.23,3.7s1.62-1.47,1.77-2.54-.87-2.3-1.78-1.81Z" transform="translate(-41.38 -79.5)"/><path class="cls-1" d="M2201,383.6c-.55.86-1.64,1.7-2.59,1.27s-.58-3.51,1.12-3.51S2201.6,382.75,2201,383.6Z" transform="translate(-41.38 -79.5)"/><path class="cls-1" d="M2199.52,377.49c-1.55.52-3.85-1.79-1.43-3.24S2201.07,377,2199.52,377.49Z" transform="translate(-41.38 -79.5)"/><path class="cls-1" d="M2201.57,357.66c1-.46,2.11,1.53,1.82,2.62a1.8,1.8,0,0,1-2.58,1,2.68,2.68,0,0,1-1-2.94c.17-.62.67-.54,1.06-.21Z" transform="translate(-41.38 -79.5)"/><path class="cls-1" d="M2199.69,348.33a1.68,1.68,0,0,0-1.09,2.53,2.47,2.47,0,0,0,3.18.61c.79-1.22-.24-3.2-1.63-3.13Z" transform="translate(-41.38 -79.5)"/><path class="cls-1" d="M487.66,595.37c.62.38,2.3,5.22,3.46,7.83.74,1.68,1.14,4.3-.53,4.85-1.42.46-2.55-1.27-3.15-2.72l-2.65-6.41a3.6,3.6,0,0,1-.38-1.72C484.57,595.86,487,595,487.66,595.37Z" transform="translate(-41.38 -79.5)"/><path class="cls-1" d="M499.45,589.74a3.29,3.29,0,0,0,.13,5c1.55,1,4.28,0,4.28-2C503.88,586.84,499.45,589.74,499.45,589.74Z" transform="translate(-41.38 -79.5)"/><path class="cls-1" d="M493.22,594.27c-2,1-1.31,5,.91,5.19a2.38,2.38,0,0,0,1.52-2.47C495.69,593.47,493.22,594.27,493.22,594.27Z" transform="translate(-41.38 -79.5)"/><path class="cls-1" d="M595.74,125.8a9.49,9.49,0,0,0-11,4.54,3,3,0,0,0-.47,1.74,3,3,0,0,0,.88,1.62,9.92,9.92,0,0,0,9.35,2.61,16.38,16.38,0,0,0,8.47-5.5,6.79,6.79,0,0,0,1.81-3.33,2.81,2.81,0,0,0-1.59-3.14,3.54,3.54,0,0,0-1.71,0l-6,1.1" transform="translate(-41.38 -79.5)"/><path class="cls-1" d="M590.33,153.92a2.37,2.37,0,0,0-.42,1.46c.11.75.87,1.18,1.56,1.38,5.48,1.53,10.4-4.49,16.06-4.86,3.21-.21,6.86,1.32,9.4-.78a8.81,8.81,0,0,0,2-2.72,2.73,2.73,0,0,0,.47-2.28c-.38-.88-1.49-1-2.4-1C606.5,145.1,596.84,142.61,590.33,153.92Z" transform="translate(-41.38 -79.5)"/><path class="cls-1" d="M613.48,133.5c-1.73.12-2.3,1-4,1.14a7,7,0,0,0-2.87.62,2.68,2.68,0,0,0-1.5,2.48c.15,1.63,2,2.35,3.51,2.51a17.2,17.2,0,0,0,7.68-1,3.24,3.24,0,0,0,1.45-.9,2.76,2.76,0,0,0-.63-3.6,7,7,0,0,0-3.61-1.26" transform="translate(-41.38 -79.5)"/><path class="cls-1" d="M554.15,178.33a55.93,55.93,0,0,0-14.69,4.31,5.27,5.27,0,0,0,3.4,2.64,25.64,25.64,0,0,0,10.26,1.4c1.62-.11,3.45-.53,4.22-2.05.9-1.76-.28-4.06-2-4.95s-3.66-.75-5.54-.6" transform="translate(-41.38 -79.5)"/><path class="cls-1" d="M1178.73,454.49c-1.18,4.06-5.29,7.46-9.07,6.1,2.28-2.13,2-6,1.21-9.08s-1.84-6.54-.54-9.46,5.82-2.32,7-.77S1179.9,450.43,1178.73,454.49Z" transform="translate(-41.38 -79.5)"/><path class="cls-1" d="M1177.29,423.51a4.73,4.73,0,0,1,1.48,5.64c-.88,1.91-3,3.64-5.08,2.21s-.67-7,1.72-9.27Z" transform="translate(-41.38 -79.5)"/><path class="cls-1" d="M1360.08,500.78c-3,1.79-7.54,1.44-10.86.35,3.21-5.47,13.81-10.94,15.16-9.1S1362.56,499.32,1360.08,500.78Z" transform="translate(-41.38 -79.5)"/><path class="cls-1" d="M1692,783.46a3.22,3.22,0,0,1-.41,5.09c-1.75.87-4.1-.87-3.93-2.93s2.76-3.34,4.34-2.16" transform="translate(-41.38 -79.5)"/><path class="cls-1" d="M1694.9,795c1.95,1.09-.45,11-2.16,11s-2.89-1.5-3.64-2.93-.3-3.69,1.2-4.07c1-.24,3.53-4.15,2.79-3.31S1692.94,793.86,1694.9,795Z" transform="translate(-41.38 -79.5)"/><path class="cls-1" d="M1450.77,948.62c-1.29-.68-2.87.31-3.64,1.6-2.12,3.52,2.54,9.57,4.49,9.2S1453.85,950.24,1450.77,948.62Z" transform="translate(-41.38 -79.5)"/><path class="cls-1" d="M1466.38,965.73a5.46,5.46,0,0,1-2.76,2.24c-1.1,0-2.65-2.15-2.53-3.79s2.38-1.42,3.26-1.21C1464.35,963,1466.92,964.62,1466.38,965.73Z" transform="translate(-41.38 -79.5)"/><path class="cls-1" d="M1558.92,1037.85l3.11.16c0,2.33-1.92,4.75-4.09,4.37s-2.69-4.47-.54-4.93Z" transform="translate(-41.38 -79.5)"/><path class="cls-1" d="M1542.27,1044.5a2.89,2.89,0,0,0-4,1.66,3.61,3.61,0,0,0,1.71,4.27,3.45,3.45,0,0,0,4.49-1.62,4,4,0,0,0-1.32-4.85" transform="translate(-41.38 -79.5)"/><path class="cls-1" d="M1693.08,831.06c1.75,0,1.49,5.28.63,6a6.75,6.75,0,0,1-3.07,1.21C1688.64,836.38,1691.34,831.06,1693.08,831.06Z" transform="translate(-41.38 -79.5)"/><path class="cls-1" d="M1693.11,816c.49-.09,2.58,2.43,2.82,4.17s-1.36,3.74-2.87,3a3,3,0,0,1-1.34-1.73c-.75-2-.34-5.42.28-5.56s.55,0,1.11.09" transform="translate(-41.38 -79.5)"/><path class="cls-1" d="M2061.44,729.12c1.52-.16,2.89,1.25,3.28,2.82a9.17,9.17,0,0,1-.44,4.8c-3,10-10.91,18.24-20.38,21.27l17.42-25Z" transform="translate(-41.38 -79.5)"/><path class="cls-1" d="M1275.05,468.35" transform="translate(-41.38 -79.5)"/><path class="cls-1" d="M1279.62,482.24a4.09,4.09,0,0,1,.63,2.85c-.48,1.69-2.63,1.84-4.27,1.65a8.91,8.91,0,0,1-4.33-1.26,7.28,7.28,0,0,1-2.42-3.65,8.65,8.65,0,0,1-.25-5.43,4.44,4.44,0,0,1,3.84-3.21c1.74,0,2.61,2.13,3.12,3.55Z" transform="translate(-41.38 -79.5)"/><path class="cls-1" d="M1293.57,494c2.25.29-2.76-.78-4.17-1.18s-4.34-1.21-4.22.33c3.4,3.36,9.25,6.43,13.81,5.59,1.25-.23,2.8-1.37,2.17-2.54a2.08,2.08,0,0,0-1.27-.86,30.59,30.59,0,0,0-9.37-1.57" transform="translate(-41.38 -79.5)"/><path class="cls-1" d="M1130.15,450.29a2.9,2.9,0,0,0-3.59,1.06,3.35,3.35,0,0,0,.32,3.95c1.62-.21,3.46-.71,4.22-2.26s-.86-4-2.25-3" transform="translate(-41.38 -79.5)"/><path class="cls-1" d="M1135.64,449.1c0,2.34,3.58,3.39,4.65,1.35s-2.34-3.89-3.5-3.53S1135.64,449.1,1135.64,449.1Z" transform="translate(-41.38 -79.5)"/><path class="cls-1" d="M1117.62,457.78c-1.88-.36-3.62,2-3,3.93a3.43,3.43,0,0,0,4.7,2,3.31,3.31,0,0,0,1.75-3.55c-.35-1.4-1.85-3-2.94-2.1" transform="translate(-41.38 -79.5)"/><path class="cls-1" d="M591.68,655.42c-1.8-.74-4,1.32-3.54,3.32a2.74,2.74,0,0,0,4.58,1.21c1.31-1.58.22-4.53-1.73-4.82" transform="translate(-41.38 -79.5)"/><path class="cls-1" d="M609.05,721.9l-2.25.16a6.71,6.71,0,0,0-.67,6.78,5,5,0,0,0,6-2.9c.89-2.35-.65-5.49-3-5.73" transform="translate(-41.38 -79.5)"/><path class="cls-1" d="M611.42,709a2.44,2.44,0,0,0-1.06,3.1,1.77,1.77,0,0,0,2.9.38c.72-1-.09-2.72-1.24-2.59" transform="translate(-41.38 -79.5)"/><path class="cls-1" d="M614.4,702.68a2.76,2.76,0,0,0-.57,4,4.45,4.45,0,0,0,1.87-2,1.77,1.77,0,0,0-1.25-1.27" transform="translate(-41.38 -79.5)"/><path class="cls-1" d="M614.48,695.9a1.9,1.9,0,0,1,1.94,2.4,1.77,1.77,0,0,1-2.9.68,2,2,0,0,1,.82-3.05Z" transform="translate(-41.38 -79.5)"/><path class="cls-1" d="M614.48,685.44a1.71,1.71,0,0,0-1.71.22,2.46,2.46,0,0,0,0,1.63,3.36,3.36,0,0,0,3.44-.6,1.5,1.5,0,0,0-1.73-1.13" transform="translate(-41.38 -79.5)"/><path class="cls-1" d="M610.24,679.09a2.8,2.8,0,0,0-2.9,2.5,2.84,2.84,0,0,0,3.89-.14c.78-1-.78-2.73-1.76-1.93" transform="translate(-41.38 -79.5)"/><path class="cls-1" d="M608.92,671.33a2,2,0,0,0-2.36,2.07c0,2.12,2.76,1.15,3.41.32C610.47,673.09,609.44,671.39,608.92,671.33Z" transform="translate(-41.38 -79.5)"/><path class="cls-1" d="M599.34,671c-.86-.59-1.81,1.14-1.05,1.87s2.07.21,2.58-.74a1.9,1.9,0,0,0-.27-2.32c-.64-.51-1.82.16-1.57,1" transform="translate(-41.38 -79.5)"/><path class="cls-1" d="M601.23,662c-1.73-.21-3,2.43-1.86,3.82a5.09,5.09,0,0,0,2.42-2.68,1.27,1.27,0,0,0-2.28.64" transform="translate(-41.38 -79.5)"/><path class="cls-1" d="M595.86,686.07c1.1-.31,2.17,1.73,2.22,3.12-.57,1-1.84,1.85-2.85,1.27S595.22,686.3,595.86,686.07Z" transform="translate(-41.38 -79.5)"/><path class="cls-1" d="M591.64,655.46c-1.8-.4-3.58,1.88-2.87,3.69a2.56,2.56,0,0,0,3.34-1.32.86.86,0,0,0-1.56-.39" transform="translate(-41.38 -79.5)"/><path class="cls-1" d="M702.48,1336.69c.58,1.93-4.29,13.92-10.29,11.49s-7.18-12.36-2.4-16.91,11.54-.94,12.12,2.24Z" transform="translate(-41.38 -79.5)"/><path class="cls-1" d="M2201,383.6" transform="translate(-41.38 -79.5)"/></svg>
