<svg id="Layer_1" data-name="Layer 1" xmlns="http://www.w3.org/2000/svg" viewBox="0 0 16.06 38.8"><defs><style>.cls-1{fill:#fff;}</style></defs><path class="cls-1" d="M18.2,25c0,3.57,0,7.13,0,10.7a8.74,8.74,0,0,1-.87,3.81,9.3,9.3,0,0,1-1.51,2.26A8.25,8.25,0,0,1,14.5,43a7.68,7.68,0,0,1-1.08.64c-.36.17-.74.3-1.11.44a4.8,4.8,0,0,1-1.46.29c-.31,0-.62.06-.93,0a9.84,9.84,0,0,1-1.23-.16A5.33,5.33,0,0,1,7.8,44a5.46,5.46,0,0,1-1.31-.63c-.35-.25-.72-.48-1-.75a9.08,9.08,0,0,1-2.09-2.52,10.08,10.08,0,0,1-.94-2.38,13.61,13.61,0,0,1-.24-3.37q0-7.46,0-14.92c0-1.91,0-3.83.07-5.75a7.77,7.77,0,0,1,.52-2.41A6.88,6.88,0,0,1,3.6,9.52c.33-.47.68-.93,1.06-1.38A6.92,6.92,0,0,1,6.24,6.78a9.19,9.19,0,0,1,1.25-.64,6.87,6.87,0,0,1,1.74-.46,7.08,7.08,0,0,1,1.78,0,6.64,6.64,0,0,1,1.77.43,9.7,9.7,0,0,1,1.36.7,7.44,7.44,0,0,1,1.44,1.17,9.18,9.18,0,0,1,1.73,2.5,8.84,8.84,0,0,1,.9,3.76q0,5.41,0,10.83ZM10.3,8.23a5.07,5.07,0,0,0-1.56.18c-.29.12-.6.21-.88.35A6,6,0,0,0,6.37,9.84a6.29,6.29,0,0,0-1.16,1.64,6.84,6.84,0,0,0-.7,2.39,7.2,7.2,0,0,0,.08,2.22,6.73,6.73,0,0,0,1.59,3.16,6.85,6.85,0,0,0,1,.87,4.85,4.85,0,0,0,1.19.64,5,5,0,0,0,1.52.33c.35,0,.71,0,1.06-.05a4,4,0,0,0,1.5-.44,5.82,5.82,0,0,0,1.45-1,6.62,6.62,0,0,0,1.4-1.94,6.69,6.69,0,0,0,.64-2.94,7,7,0,0,0-.54-2.81,6.58,6.58,0,0,0-1.34-2A4.7,4.7,0,0,0,12.86,9l-.58-.3a3.42,3.42,0,0,0-1.12-.36C10.84,8.25,10.52,8.24,10.3,8.23Z" transform="translate(-2.15 -5.6)"/></svg>