<svg id="Layer_1" data-name="Layer 1" xmlns="http://www.w3.org/2000/svg" viewBox="0 0 16.08 38.8"><defs><style>.cls-1{fill:#fff;}</style></defs><path class="cls-1" d="M1.69,24.85q0-5.05,0-10.11a11.33,11.33,0,0,1,.07-1.65,10.47,10.47,0,0,1,.39-1.56A9.29,9.29,0,0,1,3.4,9.05,8.3,8.3,0,0,1,4.8,7.48,6.9,6.9,0,0,1,6.42,6.41L7.5,6a6.92,6.92,0,0,1,1.29-.3,5.65,5.65,0,0,1,1.64,0A4.72,4.72,0,0,1,11.87,6c.28.12.58.19.85.33A9.46,9.46,0,0,1,13.88,7,8.52,8.52,0,0,1,17,10.9a8.87,8.87,0,0,1,.68,2.76c.05.74.05,1.49.05,2.24,0,4.3,0,8.6,0,12.91,0,2.52-.05,5.05-.07,7.57a7.33,7.33,0,0,1-.53,2.39,8.59,8.59,0,0,1-1,1.94,7.58,7.58,0,0,1-1.12,1.35,12.38,12.38,0,0,1-1,.9,6.4,6.4,0,0,1-1,.63,7.65,7.65,0,0,1-1.33.52,8.74,8.74,0,0,1-1.26.23,5.09,5.09,0,0,1-.87.06,9.71,9.71,0,0,1-1.32-.16,7.41,7.41,0,0,1-1.31-.42,7.22,7.22,0,0,1-1.34-.73A7.11,7.11,0,0,1,4.28,42a10.87,10.87,0,0,1-1-1.31A9.79,9.79,0,0,1,1.8,37.11a9.46,9.46,0,0,1-.12-1.77V32.7q0-3.57,0-7.14v-.71Zm14.9.16V13.87a3.08,3.08,0,0,0-.07-.61A9.29,9.29,0,0,0,15.78,11a8.35,8.35,0,0,0-1.43-2,6.37,6.37,0,0,0-1.5-1.17,9.64,9.64,0,0,0-1.31-.58A6.21,6.21,0,0,0,9.87,6.9c-.25,0-.51,0-.76,0A5.47,5.47,0,0,0,7.3,7.4,6.36,6.36,0,0,0,6,8.11,6.72,6.72,0,0,0,4.57,9.47a7.18,7.18,0,0,0-1.29,2.38,7,7,0,0,0-.42,1.9c0,.56,0,1.11,0,1.67,0,2.55,0,5.09,0,7.64q0,6.11,0,12.22a9.89,9.89,0,0,0,0,1.22,9,9,0,0,0,.82,2.65,6.43,6.43,0,0,0,1,1.5,10.94,10.94,0,0,0,1,1,9.58,9.58,0,0,0,1,.7,3.78,3.78,0,0,0,.64.3,5.28,5.28,0,0,0,1,.33,14.63,14.63,0,0,0,1.75.07,3.21,3.21,0,0,0,.88-.08,5.55,5.55,0,0,0,1.38-.5,7.54,7.54,0,0,0,.83-.49,8.17,8.17,0,0,0,1-.91,12.52,12.52,0,0,0,1.08-1.35,7.13,7.13,0,0,0,.94-2.18,7.28,7.28,0,0,0,.27-1.91C16.58,32.09,16.59,28.55,16.59,25Z" transform="translate(-1.67 -5.6)"/><path class="cls-1" d="M3.93,35.42a7.55,7.55,0,0,1,.9-3.49,6.07,6.07,0,0,1,1.32-1.64,5.39,5.39,0,0,1,1.35-.9A7.38,7.38,0,0,1,8.65,29,5.12,5.12,0,0,1,10.48,29a3.55,3.55,0,0,1,1.14.33,6.31,6.31,0,0,1,.64.31,9.33,9.33,0,0,1,.94.67,5.84,5.84,0,0,1,1.33,1.61A6.36,6.36,0,0,1,15.32,34a8,8,0,0,1,0,2.72,6.06,6.06,0,0,1-.77,2.1A8.16,8.16,0,0,1,13.69,40a5.45,5.45,0,0,1-.92.8c-.35.24-.74.43-1.12.64a2.46,2.46,0,0,1-.38.14,5.34,5.34,0,0,1-2,.19,4.35,4.35,0,0,1-1-.17,8.73,8.73,0,0,1-1.08-.49,3.68,3.68,0,0,1-.7-.46,9.19,9.19,0,0,1-1-.92A6.6,6.6,0,0,1,4.1,36.78C4,36.33,4,35.88,3.93,35.42Zm5.85-5.21a3.38,3.38,0,0,0-1.52.23,5,5,0,0,0-1.17.68,5.38,5.38,0,0,0-1.3,1.53,5.82,5.82,0,0,0-.69,2.66,5.67,5.67,0,0,0,.45,2.21,5.11,5.11,0,0,0,1.23,1.81,3.71,3.71,0,0,0,.88.63,4.46,4.46,0,0,0,1.27.49,3.7,3.7,0,0,0,2.23-.22,6.83,6.83,0,0,0,1-.5,4.56,4.56,0,0,0,1.18-1.18,5,5,0,0,0,.7-1.43,5.44,5.44,0,0,0,.16-3A5.18,5.18,0,0,0,13,31.78a4.24,4.24,0,0,0-1.08-.93,3.74,3.74,0,0,0-.62-.34,10,10,0,0,0-1.07-.29A1.9,1.9,0,0,0,9.78,30.21Z" transform="translate(-1.67 -5.6)"/></svg>